<svg width="218" height="254" viewBox="0 0 218 254" fill="none" xmlns="http://www.w3.org/2000/svg">
<g clip-path="url(#clip0_5_9641)">
<path d="M168.383 88.7159C172.135 103.395 171.293 118.174 166.754 131.541C166.536 132.19 166.313 132.824 166.075 133.463C159.639 150.891 146.858 165.707 129.811 174.443C128.988 174.862 128.161 175.266 127.311 175.643C123.115 177.614 118.68 179.213 114.028 180.402C107.674 182.026 101.294 182.791 95.0292 182.756C94.5167 182.759 94.0041 182.762 93.4876 182.749C85.8996 182.556 78.4676 181.216 71.4295 178.844L71.4144 178.848C70.6933 178.599 69.9531 178.34 69.2432 178.072L69.2281 178.076C46.815 169.771 28.7072 150.949 22.3416 126.047C22.2108 125.535 22.0799 125.023 21.9792 124.504C21.7983 123.796 21.6436 123.066 21.4929 122.351C16.2923 96.7976 24.7662 71.3421 42.1702 53.9652C42.5789 53.5561 42.9914 53.1619 43.4039 52.7676L43.419 52.7638C52.4455 44.1529 63.7485 37.6708 76.6965 34.361C82.1015 32.9794 87.5212 32.2196 92.8797 32.0367C93.8671 32.0089 94.8393 31.9849 95.8042 31.995L95.8193 31.9911C97.5871 32.0043 99.3211 32.0742 101.071 32.2045L102.613 32.3396C106.444 32.7075 110.224 33.3772 113.912 34.3114L117.667 35.3882C117.667 35.3882 117.701 35.3956 117.705 35.4106C130.262 39.2905 141.61 46.4143 150.59 56.0685L151.731 57.3325C159.473 66.0356 165.3 76.6562 168.383 88.7159Z" fill="#FFCC83"/>
<path d="M143.365 217.01L141.859 217.395L134.693 189.362L135.263 189.085C173.818 170.31 194.082 126.478 183.444 84.8642C174.059 48.1509 142.569 20.9417 104.951 16.9514L102.388 32.3324L94.0327 198.572C96.4298 198.538 103.846 198.303 112.223 196.714L112.94 196.578L119.709 223.057L118.203 223.442L111.795 198.374C101.782 200.195 93.2938 200.131 93.2076 200.131L92.3988 200.123L92.4388 199.315L100.848 32.121L103.657 15.26L104.38 15.3311C142.965 19.1114 175.344 46.8998 184.95 84.4792C195.717 126.6 175.36 170.954 136.513 190.203L143.365 217.01Z" fill="#FFCC83"/>
<path d="M95.8043 31.995C83.2505 39.9838 73.2966 49.2969 66.0218 59.8659C65.6813 60.3539 65.356 60.838 65.0344 61.3373C59.4745 69.768 55.6071 78.9847 53.4322 88.9239C49.693 105.983 51.4765 123.251 55.3108 138.439C55.4496 139.045 55.6148 139.628 55.78 140.212C60.1408 156.644 66.8438 170.505 71.4145 178.848C70.6933 178.6 69.9531 178.34 69.2432 178.072L69.2282 178.076C64.5612 169.356 58.1758 155.671 54.0169 139.652C53.8668 139.065 53.7167 138.478 53.5816 137.886C49.8304 122.71 48.1907 105.565 51.904 88.5927C54.079 78.6536 57.9274 69.4255 63.4155 60.9652C63.7371 60.4659 64.0624 59.9818 64.3878 59.4976C71.4001 49.1561 80.921 39.9696 92.8798 32.0368C93.8671 32.009 94.8394 31.985 95.8043 31.995ZM149.736 89.2479C152.59 106.499 150.031 123.658 145.471 138.698C145.301 139.286 145.115 139.879 144.926 140.457C140.582 154.207 134.629 166.058 129.811 174.443C128.988 174.862 128.161 175.266 127.311 175.643C132.153 167.477 138.511 155.265 143.139 140.93C143.328 140.352 143.517 139.774 143.702 139.182C148.383 124.111 151.077 106.854 148.196 89.4973C146.518 79.356 143.064 69.8613 137.851 61.0732C137.573 60.6149 137.292 60.1414 136.995 59.6718C131.274 50.4038 123.559 41.9341 113.912 34.3114L117.667 35.3882C117.667 35.3882 117.701 35.3956 117.705 35.4107C126.345 42.6658 133.322 50.6341 138.603 59.3089L138.618 59.3051C138.895 59.7636 139.177 60.2371 139.443 60.7141C144.616 69.529 148.047 79.0616 149.736 89.2479ZM102.613 32.3396L101.034 63.7477L100.959 65.3385L96.9299 145.139L96.8476 146.7L95.0293 182.756C94.5167 182.759 94.0041 182.762 93.4877 182.749L95.3134 146.659L95.3806 145.102L99.4027 65.3355L99.4773 63.7446L99.4923 63.7407L101.071 32.2046L102.613 32.3396Z" fill="#F2F2F2"/>
<path d="M150.59 56.0684C146.534 57.3298 142.54 58.3987 138.618 59.3052L138.603 59.309C138.061 59.4476 137.53 59.5672 136.995 59.6718C124.105 62.5818 112.047 63.7234 101.034 63.7477C100.521 63.7504 100.009 63.7531 99.4923 63.7408L99.4772 63.7446C86.7788 63.6384 75.5273 62.0394 66.0217 59.8659C65.4632 59.7521 64.916 59.6192 64.3877 59.4977C55.7759 57.4325 48.692 54.9447 43.419 52.7639L43.4039 52.7678C42.9914 53.1619 42.5789 53.5561 42.1702 53.9653C47.4776 56.2175 54.6525 58.8104 63.4155 60.9652C63.9438 61.0868 64.491 61.2196 65.0344 61.3373C65.6156 61.4775 66.2118 61.6138 66.808 61.7501C75.5963 63.6899 86.6139 65.2524 99.4027 65.3356C99.9191 65.3479 100.432 65.3452 100.959 65.3386C112.082 65.3025 124.468 64.1252 137.851 61.0732C138.385 60.9686 138.916 60.8489 139.443 60.7142C140.441 60.4753 141.453 60.2325 142.477 59.9708C145.518 59.1934 148.6 58.3253 151.731 57.3325L150.59 56.0684ZM166.755 131.541C166.536 132.19 166.313 132.824 166.075 133.463C158.797 136.302 151.738 138.619 144.926 140.457C144.328 140.626 143.73 140.795 143.138 140.93C142.841 141.022 142.54 141.099 142.239 141.176C125.632 145.421 110.448 146.945 96.8475 146.7C96.3312 146.687 95.8148 146.675 95.3134 146.659C80.0203 146.253 66.7734 143.625 55.7799 140.212C55.1871 140.026 54.5944 139.841 54.0168 139.652C52.1291 139.044 50.2978 138.405 48.5416 137.747C37.8922 133.797 28.9982 128.997 21.9792 124.504C21.7983 123.796 21.6436 123.066 21.4929 122.351C28.6261 127.039 37.9022 132.142 49.156 136.323C50.576 136.858 52.0562 137.378 53.5816 137.886C54.1403 138.064 54.718 138.254 55.3107 138.439C66.3611 141.95 79.7972 144.691 95.3805 145.102C95.9008 145.129 96.4172 145.142 96.9298 145.139C110.884 145.389 126.54 143.761 143.702 139.182C144.289 139.032 144.873 138.866 145.471 138.697C152.336 136.814 159.432 134.455 166.755 131.541Z" fill="#F2F2F2"/>
<path d="M101.86 213.986L152.876 200.945C157.494 199.765 162.202 202.556 163.383 207.174L165.092 213.862L97.3413 231.181L95.6316 224.492C94.4511 219.874 97.2421 215.166 101.86 213.986Z" fill="#112E5B"/>
<path d="M184.665 208.858L77.769 236.183L80.0782 245.217L186.974 217.892L184.665 208.858Z" fill="#F90065"/>
<path d="M169.141 88.5204L167.635 88.9054C162.374 68.3246 148.532 50.9127 129.656 41.1347L130.372 39.7543C149.639 49.7369 163.771 67.511 169.141 88.5204ZM108.432 182.398C89.5932 185.7 70.3269 181.802 54.1796 171.423C37.9484 160.99 26.3763 144.942 21.5948 126.236L23.1008 125.852C27.7846 144.175 39.1207 159.895 55.0205 170.116C70.8376 180.283 89.7108 184.102 108.164 180.868L108.432 182.398Z" fill="black"/>
<path d="M147.829 227.898L81.5833 244.832L81.9682 246.338L148.214 229.404L147.829 227.898Z" fill="black"/>
</g>
<defs>
<clipPath id="clip0_5_9641">
<rect width="168.608" height="218.508" fill="white" transform="translate(0 41.7571) rotate(-14.339)"/>
</clipPath>
</defs>
</svg>
