<svg width="51" height="51" viewBox="0 0 51 51" fill="none" xmlns="http://www.w3.org/2000/svg">
<rect width="51" height="51" rx="25.5" fill="#F79A38"/>
<path d="M33.453 29.061C34.122 28.3919 34.2176 27.4362 33.6442 26.4804C33.1663 25.7158 32.3061 25.3335 31.3504 25.5247C30.9681 25.6202 30.5857 25.8114 30.2034 26.0981C27.2406 28.1052 23.2265 28.0096 20.2636 26.0025C20.0725 25.907 19.8813 25.8114 19.6902 25.7158C18.6388 25.2379 17.5875 25.4291 17.0141 26.3849C16.345 27.3406 16.4406 28.3919 17.3008 29.2521C17.4919 29.4433 17.6831 29.5388 17.7787 29.73L17.8742 29.8256C19.2123 30.8769 20.8371 31.5459 22.9397 31.8326L21.6972 33.0751C20.6459 34.1265 19.499 35.2734 18.4477 36.3247C18.161 36.6114 17.7787 37.0893 17.7787 37.7583C17.7787 38.6185 18.2565 39.4787 19.1167 39.861C19.4034 40.0521 19.6902 40.0521 19.9769 40.0521C20.4548 40.0521 21.0282 39.861 21.4105 39.3831C22.8441 37.9495 23.9911 36.8026 25.138 35.6557C25.2335 35.5601 25.2335 35.5601 25.2335 35.5601C25.2335 35.5601 25.3291 35.5601 25.3291 35.6557C26.0937 36.5158 26.9539 37.2804 27.7185 38.1406C28.1008 38.5229 28.4831 38.9052 28.8654 39.2875C29.3433 39.7654 29.7256 39.9565 30.299 39.9565C31.1592 40.0521 32.115 39.4787 32.4973 38.6185C32.8796 37.8539 32.6884 36.8981 32.0194 36.3247C31.0636 35.3689 30.1079 34.3176 29.0565 33.3618L27.4318 31.7371C28.2919 31.6415 29.2477 31.4503 30.1079 31.068C31.5415 30.5902 32.5928 29.9211 33.453 29.061Z" fill="white"/>
<path d="M25.2335 26.3848C29.3433 26.3848 32.6884 23.1353 32.6884 19.0255C32.6884 17.0185 31.9238 15.107 30.4902 13.6733C29.0565 12.2397 27.2406 11.4751 25.3291 11.4751C21.2194 11.4751 17.9698 14.8202 17.8742 18.8344C17.8742 20.8415 18.6388 22.6574 20.0725 24.091C21.4105 25.6202 23.2264 26.3848 25.2335 26.3848ZM23.1309 16.8273C23.7043 16.2539 24.4689 15.9671 25.2335 15.9671C26.9539 15.9671 28.1964 17.3052 28.1964 18.93C28.1964 20.6503 26.8583 21.8928 25.2335 21.8928C23.5132 21.8928 22.2707 20.5548 22.2707 18.93C22.2707 18.1654 22.5574 17.4008 23.1309 16.8273Z" fill="white"/>
<path d="M33.453 29.061C34.122 28.3919 34.2176 27.4362 33.6442 26.4804C33.1663 25.7158 32.3061 25.3335 31.3504 25.5247C30.9681 25.6202 30.5857 25.8114 30.2034 26.0981C27.2406 28.1052 23.2265 28.0096 20.2636 26.0025C20.0725 25.907 19.8813 25.8114 19.6902 25.7158C18.6388 25.2379 17.5875 25.4291 17.0141 26.3849C16.345 27.3406 16.4406 28.3919 17.3008 29.2521C17.4919 29.4433 17.6831 29.5388 17.7787 29.73L17.8742 29.8256C19.2123 30.8769 20.8371 31.5459 22.9397 31.8326L21.6972 33.0751C20.6459 34.1265 19.499 35.2734 18.4477 36.3247C18.161 36.6114 17.7787 37.0893 17.7787 37.7583C17.7787 38.6185 18.2565 39.4787 19.1167 39.861C19.4034 40.0521 19.6902 40.0521 19.9769 40.0521C20.4548 40.0521 21.0282 39.861 21.4105 39.3831C22.8441 37.9495 23.9911 36.8026 25.138 35.6557C25.2335 35.5601 25.2335 35.5601 25.2335 35.5601C25.2335 35.5601 25.3291 35.5601 25.3291 35.6557C26.0937 36.5158 26.9539 37.2804 27.7185 38.1406C28.1008 38.5229 28.4831 38.9052 28.8654 39.2875C29.3433 39.7654 29.7256 39.9565 30.299 39.9565C31.1592 40.0521 32.115 39.4787 32.4973 38.6185C32.8796 37.8539 32.6884 36.8981 32.0194 36.3247C31.0636 35.3689 30.1079 34.3176 29.0565 33.3618L27.4318 31.7371C28.2919 31.6415 29.2477 31.4503 30.1079 31.068C31.5415 30.5902 32.5928 29.9211 33.453 29.061Z" fill="white"/>
</svg>
