<svg width="1389" height="256" viewBox="0 0 1389 256" fill="none" xmlns="http://www.w3.org/2000/svg">
<path d="M458.12 102.958C469.26 103.576 480.604 104.924 493.935 107.073C493.942 107.074 493.95 107.075 493.957 107.076C495.924 107.392 497.937 107.727 500.001 108.082C516.221 110.939 538.143 115.076 569.463 123.801C604.096 133.581 629.943 145.192 645.266 152.445C648.14 153.822 651.172 155.112 658.81 158.096C663.815 160.049 670.611 162.675 680.337 166.36C685.503 168.315 691.554 170.585 698.566 173.135C721.837 181.698 758.586 193.063 793.294 198.396C814.238 201.787 834.72 203.334 849.91 203.911C870.478 204.694 889.615 204.47 911.183 203.095C913.554 202.942 915.932 202.776 918.318 202.597C940.173 200.939 963.453 198.215 990.33 193.151C1010.88 189.262 1030.88 185.491 1051.09 180.808C1053.7 180.201 1056.3 179.583 1058.86 178.958C1076.62 174.629 1094.83 169.429 1113.85 162.491C1144.36 151.216 1168.81 139.334 1192.31 124.809L1192.24 124.853C1194.99 122.996 1197.76 121.188 1200.56 119.427C1211.44 112.598 1223.24 106.119 1236.57 100.328C1257.52 91.2533 1289.96 80.7341 1323.97 82.9885C1326.78 83.1854 1329.73 83.4905 1332.61 83.9057C1332.62 83.9078 1332.64 83.9098 1332.65 83.9119C1347.96 86.0984 1363.54 91.7437 1374.4 102.479C1385.5 113.106 1389.25 128.162 1388.66 139.575C1384.18 176.201 1372.17 185.198 1367.1 194.909C1364.87 198.19 1362.66 201.273 1359.77 204.996C1349.96 217.821 1332.89 235.452 1314.11 251.272C1314.04 251.333 1313.97 251.395 1313.9 251.456C1310.75 254.128 1307.73 255.895 1307.32 255.366C1306.9 254.839 1309.21 252.211 1312.32 249.535C1322.04 241.194 1331.34 232.491 1339.26 224.253C1339.22 223.38 1341.01 220.811 1343.43 218.181C1348.41 211.08 1372.61 191.555 1382.55 148.656C1381.86 151.698 1381.17 153.828 1380.43 155.958C1379.57 158.424 1378.8 160.272 1378.15 161.735C1376.78 164.814 1375.65 167.189 1373.86 170.739C1369.7 179.455 1361.93 192.134 1351.78 204.565C1349.3 207.622 1346.64 209.742 1346.08 209.224C1345.51 208.706 1347.2 205.762 1349.62 202.728C1349.67 202.669 1349.72 202.61 1349.76 202.55C1359.62 190.338 1367.49 177.313 1371.53 168.524C1372.56 166.331 1373.47 164.23 1374.06 162.79C1374.54 161.615 1375.1 160.174 1375.41 159.39C1375.46 159.286 1375.54 159.088 1375.64 158.854C1375.64 158.85 1375.64 158.846 1375.64 158.842C1375.7 158.723 1375.99 158.019 1376.36 157.25C1376.44 157.096 1376.6 156.763 1376.81 156.385C1376.85 156.283 1376.89 156.181 1376.93 156.079C1377.45 154.654 1377.93 153.22 1378.39 151.691C1379.48 145.838 1384.98 134.567 1375.45 115.797C1366.96 97.8232 1330.49 84.3764 1288.78 92.7147C1291.66 92.2878 1294.36 91.9511 1297.29 91.6524C1304.52 90.9228 1311.75 90.6455 1318.91 90.9522C1321.71 91.0724 1324.38 91.2758 1327.08 91.5744C1331.64 92.083 1335.81 92.8014 1340.21 93.8866C1343.07 94.5984 1345.93 95.4658 1348.72 96.4997C1348.72 96.502 1348.73 96.5042 1348.74 96.5063C1352.47 97.8938 1356.32 99.6996 1359.73 101.813C1360.96 102.575 1362.12 103.363 1363.23 104.177C1367.65 107.46 1371.51 111.352 1374.52 116.616C1374.88 117.262 1375.23 117.98 1375.49 118.524C1375.76 119.107 1376 119.677 1376.21 120.222C1376.41 120.706 1376.57 121.162 1376.72 121.6C1376.74 121.659 1376.77 121.718 1376.79 121.777C1376.95 122.269 1377.11 122.744 1377.24 123.204C1377.38 123.663 1377.51 124.109 1377.63 124.55C1377.63 124.554 1377.63 124.558 1377.63 124.562C1377.76 125.024 1377.85 125.377 1377.97 125.872C1378.12 126.488 1378.25 127.053 1378.38 127.672C1378.51 128.284 1378.63 128.929 1378.75 129.59C1378.86 130.249 1378.96 130.93 1379.05 131.63C1379.14 132.331 1379.21 133.053 1379.27 133.791C1379.32 134.508 1379.36 135.2 1379.39 135.927C1379.41 136.651 1379.42 137.392 1379.42 138.147C1379.4 139.876 1379.12 141.645 1378.72 142.746C1378.31 143.9 1377.83 144.517 1377.43 144.456C1377.02 144.396 1376.71 143.668 1376.5 142.495C1376.29 141.371 1376.21 139.678 1376.17 138.067C1376.17 137.625 1376.15 137.185 1376.13 136.748C1376.12 136.489 1376.1 136.228 1376.08 135.971C1376.04 135.271 1375.98 134.617 1375.9 133.889C1375.82 133.164 1375.72 132.447 1375.6 131.735C1375.48 131.022 1375.35 130.312 1375.19 129.606C1375.04 128.894 1374.87 128.22 1374.67 127.465C1374.47 126.746 1374.23 125.942 1374 125.235C1373.83 124.719 1373.61 124.089 1373.42 123.572C1373.21 123.029 1373.01 122.514 1372.79 121.997C1372.57 121.484 1372.36 120.994 1372.14 120.532C1372.11 120.482 1372.09 120.433 1372.06 120.384C1371.87 119.976 1371.67 119.586 1371.48 119.222C1371.26 118.814 1371.04 118.434 1370.83 118.077C1370.6 117.684 1370.45 117.449 1370.26 117.164C1367.77 113.42 1363.54 109.372 1358.8 106.48C1358.2 106.106 1357.58 105.743 1356.96 105.393C1353.8 103.61 1350.19 102.069 1346.63 100.902C1343.95 100.018 1341.26 99.3116 1338.48 98.7282C1334.25 97.8453 1330.25 97.316 1325.86 96.9855C1323.28 96.7965 1320.67 96.6942 1317.95 96.6774C1311.04 96.6401 1304.01 97.1649 1296.87 98.1621C1289.96 99.13 1282.87 100.565 1275.85 102.367C1268.96 104.132 1261.71 106.381 1254.94 108.782C1249.8 110.601 1244.86 112.455 1240.07 114.397C1237.46 115.454 1235.1 116.448 1232.67 117.509C1232.66 117.512 1232.66 117.515 1232.65 117.519C1230.53 118.445 1228.44 119.396 1226.35 120.381C1221.93 122.464 1217.73 124.599 1213.45 126.955C1209.24 129.271 1205.2 131.655 1201.06 134.277C1200.47 134.654 1199.87 135.036 1199.27 135.423L1199.19 135.478C1195.44 137.788 1191.58 139.987 1187.94 142.037C1183.63 144.458 1179.09 146.93 1174.64 149.297C1168.69 152.465 1162.47 155.654 1156.39 158.662C1150.17 161.735 1144.01 164.669 1137.57 167.607C1135.41 168.594 1133.19 169.591 1130.92 170.598C1130.91 170.602 1130.9 170.606 1130.9 170.609C1126.79 172.43 1122.59 174.245 1118.45 175.983C1112.01 178.684 1105.52 181.294 1098.92 183.818C1092.37 186.325 1085.76 188.732 1078.94 191.073C1072.3 193.351 1065.28 195.622 1058.24 197.704C1051.96 199.562 1045.54 201.341 1039.36 202.962C1037.72 203.392 1036.07 203.818 1034.41 204.241C1026.56 206.243 1018.88 208.078 1011.42 209.811C1003.84 211.572 996.396 213.249 988.683 214.914C981.16 216.541 973.35 218.152 965.58 219.657C957.651 221.188 949.988 222.579 942.01 223.906C934.156 225.213 926.177 226.424 918.11 227.521C916.543 227.733 914.936 227.942 913.311 228.146C910.194 228.533 907.066 228.89 904.079 229.205C899.454 229.692 894.923 230.104 890.511 230.452C888.719 230.593 886.967 230.722 885.072 230.849C882.364 231.032 879.703 231.192 877.106 231.335C872.721 231.577 868.504 231.77 864.457 231.938C860.412 232.106 856.16 232.246 852.286 232.381C848.24 232.52 844.942 232.641 841.034 232.796C831.267 232.993 825.134 232.732 818.59 232.398C817.305 232.331 815.965 232.256 814.523 232.167C806.293 231.631 798.605 230.894 790.576 229.871C782.507 228.837 774.958 227.646 766.957 226.138C759.188 224.673 751.43 222.974 743.727 221.071C736.152 219.201 728.42 217.072 720.954 214.827C713.434 212.569 705.803 210.079 698.596 207.582C694.403 206.131 689.996 204.539 685.937 203.032C683.018 201.948 680.113 200.85 677.298 199.775C676.146 199.335 675.003 198.896 673.873 198.462C669.976 196.964 666.206 195.503 662.561 194.109C658.916 192.716 655.39 191.385 651.93 190.122C648.464 188.855 645.085 187.664 641.678 186.51C638.153 185.32 635.185 184.354 631.436 183.197C628.99 182.444 626.591 181.713 624.195 180.99C620.617 179.91 617.003 178.835 613.463 177.812C609.902 176.782 606.371 175.785 602.803 174.807C601.656 174.493 600.443 174.163 599.287 173.853C595.78 172.916 592.297 172.017 588.791 171.15C585.302 170.288 581.758 169.447 578.37 168.696C574.93 167.93 571.522 167.212 568.015 166.52C561.962 165.32 556.566 164.157 551.589 163.097C546.551 162.021 541.971 161.066 537.472 160.183C536.628 160.018 535.782 159.854 534.933 159.691C531.304 158.997 527.549 158.315 524.091 157.743C519.788 157.028 515.499 156.388 511.128 155.811C506.724 155.228 502.523 154.754 498.258 154.347C493.962 153.939 489.785 153.61 485.224 153.336C480.917 153.086 476.476 152.936 471.522 152.834C466.588 152.732 461.403 152.693 456.341 152.7C451.22 152.703 445.925 152.736 440.563 152.796C435.42 152.864 430.278 152.957 425.052 153.077C419.816 153.197 414.436 153.352 409.471 153.53C404.409 153.708 399.079 153.928 393.994 154.171C385.64 154.571 378.14 155.039 369.878 155.678C361.544 156.329 353.906 157.035 345.82 157.893C337.784 158.745 329.473 159.752 321.727 160.78C313.852 161.824 305.546 163.037 297.518 164.305C295.799 164.576 294.072 164.852 292.336 165.134C286.223 166.129 280.001 167.197 273.694 168.339C273.651 168.346 273.607 168.354 273.564 168.361C265.21 169.881 257.869 171.288 249.956 172.9C247.071 173.489 244.278 174.069 241.42 174.679C238.559 175.29 235.731 175.907 232.857 176.55C230.38 177.105 227.989 177.651 225.738 178.177C225.345 178.268 224.952 178.36 224.56 178.453C221.863 179.087 219.217 179.723 216.533 180.389C214.072 180.998 211.618 181.626 208.918 182.322C208.671 182.385 208.424 182.449 208.178 182.513C205.22 183.276 201.825 184.141 198.633 184.923C195.91 185.588 193.191 186.262 190.466 186.946L188.727 187.331C182.638 188.393 176.734 189.351 170.898 190.225C161.872 191.576 153.425 192.685 144.126 193.67C140.567 194.045 137.052 194.38 133.599 194.668C128.028 195.135 122.266 195.51 116.836 195.74C107.338 196.147 98.0957 196.204 88.4844 195.744C78.9321 195.282 68.9281 194.271 59.2481 192.377C48.9107 190.31 38.9671 187.637 28.1076 181.967C16.8715 176.365 0.896585 162.588 0.0292457 142.877C-0.565165 124.085 8.02028 112.476 14.9561 103.415C22.2791 94.3695 30.7336 86.8817 38.7881 80.5768C47.2972 73.9113 55.7643 68.2604 64.2743 63.0271C69.6722 59.6935 74.592 56.8678 79.9487 53.8884C82.6731 52.1832 85.4298 50.5034 87.7926 49.0964C106.694 37.9421 119.847 31.312 138.818 22.7266C140.532 21.9458 141.927 21.2866 143.642 20.4862C143.969 20.3335 144.317 20.1723 144.673 20.0074C146.926 18.963 149.538 17.7743 153.291 16.1879C161.064 12.8822 171.998 8.71092 187.316 3.83833C191.068 2.66211 193.739 2.46514 193.219 3.42956C192.856 4.10796 191.039 5.19736 188.725 6.21935C193.134 4.63823 197.611 3.05644 202.155 1.46917C203.968 0.83595 205.733 0.355642 207.041 0.133534C208.254 -0.0716761 208.98 -0.0401218 209.09 0.227988C209.09 0.228018 209.09 0.228018 209.09 0.228049C209.098 0.24908 209.103 0.271552 209.104 0.295494C209.119 0.624791 208.402 1.20809 207.129 1.92839C205.856 2.6478 204.135 3.44362 202.344 4.1357C197.594 5.97081 192.952 7.79401 188.404 9.61646C183.98 11.384 178.967 13.4512 174.405 15.3657C169.733 17.3294 165.404 19.1804 160.695 21.2532C155.984 23.3291 151.382 25.4034 146.893 27.4761C142.496 29.5024 137.766 31.7484 133.218 33.9635C130.483 35.2952 127.766 36.6387 125.148 37.955C124.161 38.451 123.263 38.9052 122.254 39.4199C121.426 39.8419 120.599 40.265 119.754 40.7005C110.905 45.2616 102.418 49.8764 93.9106 54.8348C85.5077 59.737 77.311 64.8209 68.8638 70.595C60.8723 76.0667 52.9601 81.9353 45.1413 88.6835C37.7389 95.0943 30.239 102.45 24.1157 110.809C18.2209 119.086 12.1406 129.395 13.2612 142.25C14.1399 152.198 21.001 160.482 28.1838 165.124C30.9561 166.857 34.198 168.428 36.9463 169.519C45.6983 172.992 54.0378 174.415 62.7828 175.35C47.9116 173.033 35.422 169.784 24.95 161.619C23.545 160.474 22.3435 159.369 21.0745 157.982C6.55475 142.826 15.5872 119.903 28.7099 105.572C69.9095 63.7306 101.995 52.5802 119.437 42.4875C137.544 33.4689 145.925 30.0983 153.432 27.2913C164.526 23.1007 184.987 14.5313 195.021 10.3716C198.724 8.82409 202.006 8.104 202.263 8.76987C202.522 9.43614 199.692 11.2952 196.031 12.9126C185.541 17.4743 163.408 27.2346 150.65 32.2841C145.25 34.4115 138.337 37.2401 120.751 46.3216C103.936 56.3463 72.0618 68.2321 32.6802 109.077C20.6842 122.832 13.7547 140.991 24.5211 153.205C25.5144 154.382 26.5566 155.406 27.6744 156.367C27.6812 156.373 27.6879 156.379 27.6948 156.386C38.7454 165.345 53.5897 168.605 73.8246 170.52C111.312 173.838 159.484 165.66 183.802 160.469L183.576 160.519C189.365 158.851 193.802 157.583 196.545 156.766C199.392 155.919 202.122 155.094 204.984 154.238C209.163 152.99 213.64 151.667 219.166 150.134C228.274 147.621 241.278 144.246 259.565 140.281C266.487 138.792 274.482 137.196 282.999 135.647C295.224 132.565 308.565 129.629 319.18 127.655C328.157 125.967 337.56 124.021 345.847 122.274C348.267 121.766 350.686 121.258 353.087 120.764C358.663 119.593 365.132 118.406 370.891 117.492C375.552 116.757 380.371 115.978 385.393 115.215C404.611 112.429 426.999 109.601 457.114 111.136C488.806 112.817 515.809 117.266 538.621 122.367C521.894 118.485 508.72 116.014 497.815 114.162C495.734 113.812 493.724 113.485 491.776 113.18C478.57 111.096 468.108 109.9 457.879 109.338C407.3 107.156 388.033 110.08 367.259 113.03C361.64 113.907 355.406 115.04 349.09 116.304C336.166 118.856 321.2 122.138 305.433 125.377C289.951 128.521 274.708 132.312 256.891 137.072C256.884 137.074 256.878 137.075 256.871 137.077C253.613 137.963 250.292 138.879 246.914 139.823C237.869 142.354 227.991 145.184 218.656 147.958C207.147 151.388 195.213 155.017 183.099 158.691L183.461 158.61C183.427 158.618 183.392 158.626 183.358 158.634C181.012 159.161 178.227 159.793 175.078 160.485C157.039 164.265 124.906 171.524 85.236 169.342C76.3607 168.739 67.7297 167.611 57.7741 165.111C54.9247 164.375 51.7486 163.444 48.7056 162.347C36.2554 158.123 17.8511 147.307 28.6922 127.228C36.6394 111.196 55.0725 95.0879 74.8732 80.8957C84.9839 73.686 95.2803 67.1175 105.813 60.8525C137.96 41.8762 168.558 27.335 199.776 13.3657C199.783 13.3628 199.789 13.36 199.795 13.3571C203.478 11.724 206.647 10.9595 206.783 11.665C206.92 12.3704 204.015 14.3356 200.381 16.0377C169.447 30.5396 139.301 45.4755 107.73 64.7051C97.5408 70.9597 87.4893 77.557 77.6456 84.753C58.2085 98.9587 40.0912 115.537 33.4463 129.977C29.5651 138.891 30.663 143.159 34.5543 147.516C38.6323 151.892 45.6829 155.079 51.7626 157.113C54.947 158.17 57.7748 158.941 60.7153 159.637C70.0604 161.793 78.0089 162.747 86.2716 163.24C123.717 165.026 154.431 158.209 172.369 154.43C175.557 153.729 178.405 153.083 180.854 152.532C181.33 152.425 181.808 152.317 182.287 152.208L181.457 152.392C193.58 148.688 205.555 145.028 217.158 141.566C225.76 139.003 234.986 136.356 243.484 133.969C246.85 133.024 250.174 132.104 253.447 131.21C253.453 131.208 253.46 131.205 253.466 131.203C271.116 126.441 287.074 122.471 302.758 119.264C318.191 116.093 331.475 113.115 344.247 110.548C351.017 109.183 357.295 107.974 364.094 106.908C386.491 103.671 406.779 100.697 458.12 102.958ZM181.843 8.71786C172.286 12.0504 165.101 14.8487 159.61 17.1573C164.351 15.2921 168.865 13.5736 173.643 11.7727C176.346 10.7555 179.078 9.73764 181.843 8.71786ZM285.303 141.833C283.791 142.21 282.262 142.594 280.721 142.984C285.018 142.148 289.268 141.352 293.463 140.591C298.682 139.644 304.307 138.678 309.606 137.811C301.055 139.099 292.667 140.501 285.303 141.833ZM456.857 117.519C428.708 116.118 408.393 118.592 389.5 121.25C384.067 122.032 379.201 122.824 374.073 123.618C371.965 123.947 369.849 124.303 367.703 124.683C380.249 123.735 391.476 123.216 401.058 122.946C428.921 122.239 445.113 123.496 459.015 124.7C462.976 125.062 466.837 125.452 470.886 125.886C474.226 125.932 477.658 126.018 481.086 126.163C485.838 126.359 491.09 126.685 496.134 127.105C501.174 127.521 506.149 128.026 511.069 128.625C516.178 129.251 521.15 129.961 526.018 130.74C530.535 131.461 535.246 132.3 539.694 133.151C539.949 133.2 540.204 133.249 540.458 133.298C545.185 134.208 549.562 135.112 553.829 136.003C558.136 136.901 561.674 137.641 564.818 138.219C568.724 138.939 572.764 139.748 576.782 140.615C580.787 141.478 584.729 142.384 588.616 143.325C592.563 144.284 596.495 145.293 600.366 146.325C601.62 146.66 602.927 147.013 604.162 147.352C604.731 147.508 605.3 147.663 605.866 147.82C598.502 145.381 590.545 142.853 582.557 140.469C570.799 136.963 558.183 133.412 544.22 130.106C520.252 124.458 491.904 119.365 456.857 117.519ZM717.018 186.348C713.828 185.35 709.217 183.911 703.181 181.936C701.759 181.471 700.261 180.979 698.696 180.458C698.732 180.472 698.769 180.485 698.806 180.499C702.621 181.97 706.19 183.31 710.01 184.693C716.779 187.143 723.579 189.463 730.266 191.591C737.038 193.746 743.933 195.772 750.745 197.594C757.662 199.444 764.565 201.105 771.484 202.575C778.59 204.082 785.331 205.327 792.421 206.43C794.663 206.778 796.99 207.117 799.218 207.421C794.183 206.557 788.928 205.597 783.546 204.505C779.307 203.645 774.645 202.637 769.926 201.514C768.114 201.083 765.934 200.538 763.416 199.881C753.283 197.25 737.609 192.8 717.018 186.348ZM855.669 210.41C857.334 210.409 858.999 210.403 860.656 210.394C865.339 210.369 869.607 210.315 874.046 210.219C877.138 210.151 880.23 210.063 883.311 209.948C884.596 209.9 885.97 209.843 887.168 209.79C889.217 209.698 891.267 209.593 893.317 209.476C878.796 210.016 864.706 210.06 849.678 209.517C849.484 209.51 849.288 209.504 849.092 209.497C851.314 209.823 853.506 210.127 855.669 210.41Z" fill="#FFD983"/>
</svg>
