<svg width="1420" height="100" viewBox="0 0 1420 100" fill="none" xmlns="http://www.w3.org/2000/svg">
<path d="M884.796 91.9965C876.289 91.9446 868.309 91.5537 858.433 91.3596C858.428 91.3598 858.422 91.36 858.417 91.3602C857.023 91.3332 855.558 91.3113 854.021 91.3009C850.003 91.2729 845.658 91.2987 840.9 91.4483C829.538 91.8757 816.792 92.3129 799.143 92.6319C770.609 93.1147 748.367 90.6435 734.406 88.272C731.833 87.8256 729.288 87.5355 722.625 86.9207C718.129 86.5007 712.186 85.9621 703.789 84.9883C699.144 84.4509 693.828 83.784 687.793 82.9147C667.415 80.1358 635.399 74.3685 607.038 67.1362C589.693 62.8147 573.561 58.3466 561.435 55.0433C543.681 50.1925 526.801 45.521 508.341 41.6159C491.437 38.0579 473.183 35.1271 451.824 33.8882C435.366 32.9451 419.422 32.136 402.96 32.1278C400.883 32.1258 398.776 32.139 396.643 32.1685C382.041 32.3692 367.393 33.1902 350.983 35.3519C324.775 38.8528 304.036 43.9112 281.294 50.116C279.307 50.6632 277.302 51.2235 275.276 51.7969C265.651 54.5214 255.677 57.5031 244.86 60.7449C227.732 65.8416 203.1 73.3757 178.065 80.3156C175.928 80.9059 173.793 81.4906 171.668 82.0643C171.657 82.0672 171.646 82.0701 171.635 82.073C148.641 88.3302 125.805 93.4204 108.615 95.9429C81.3606 99.8555 70.7653 99.0763 61.9852 98.7974C58.6969 98.6172 55.6049 98.3562 51.9969 97.8628C39.0416 96.2277 18.5288 90.2932 3.63153 75.6228C3.57528 75.5689 3.51904 75.5149 3.46278 75.4608C1.01693 73.1009 -0.407528 70.6153 0.10335 70.1849C0.618989 69.7476 2.82937 71.4381 5.20521 73.6895C12.8301 80.9976 21.9289 86.2965 30.5206 89.5748C31.2123 89.1568 33.6297 89.5672 36.4403 90.4384C43.2759 92.7519 66.0485 97.7616 100.466 91.9473C98.0749 92.1231 96.0921 92.2219 94.365 92.2846C92.2873 92.3629 90.7093 92.3865 89.3606 92.3994C86.5634 92.419 84.6866 92.4187 81.3674 92.4936C73.7421 92.7756 61.636 92.9697 49.2237 90.8238C46.1179 90.2919 43.7313 89.0866 43.9299 88.3466C44.1203 87.6004 46.7425 87.5581 49.7622 88.0457C49.8219 88.0554 49.8815 88.065 49.9412 88.0745C61.9352 90.046 74.2169 89.7819 82.0537 89.3971C84.0613 89.3013 85.8183 89.1971 87.0894 89.1207C88.1177 89.0593 89.4103 88.9734 90.1345 88.95C90.2305 88.947 90.414 88.942 90.6334 88.9401C90.6371 88.9402 90.6408 88.9404 90.6444 88.9405C90.7671 88.9394 91.3936 88.9327 92.0721 88.9863C92.209 88.9972 92.5072 89.0222 92.8572 89.0763C92.9458 89.0735 93.0344 89.0708 93.1231 89.0679C94.3734 89.0263 95.5782 88.9834 96.9314 88.9108C102.236 88.5846 110.572 88.0679 127.867 84.8997C143.767 82.0427 170.307 75.1932 202.983 65.0553C200.75 65.6578 198.519 66.2609 196.277 66.8682C190.655 68.3909 184.993 69.9271 179.359 71.4297C177.196 72.007 175.046 72.5767 172.873 73.1481C169.385 74.0648 165.845 74.982 162.335 75.8723C159.968 76.4723 157.581 77.0694 155.192 77.6556C155.186 77.6571 155.181 77.6585 155.175 77.66C151.864 78.472 148.572 79.2572 145.203 80.0329C144.029 80.3011 142.873 80.5629 141.728 80.8193C137.155 81.8416 132.659 82.8031 127.429 83.7476C126.791 83.8537 126.098 83.9602 125.58 84.0349C125.024 84.116 124.49 84.1908 123.985 84.2579C123.539 84.317 123.115 84.3705 122.709 84.4221C122.654 84.4291 122.6 84.436 122.545 84.443C122.091 84.5006 121.657 84.556 121.241 84.6091C120.828 84.6617 120.421 84.7135 120.02 84.7677C120.016 84.7685 120.012 84.7692 120.009 84.7699C119.59 84.8269 119.273 84.87 118.832 84.9343C118.278 85.0151 117.803 85.0861 117.23 85.1756C116.676 85.2621 116.099 85.354 115.518 85.4478C114.937 85.5417 114.348 85.638 113.751 85.7356C113.153 85.8333 112.547 85.9319 111.938 86.0309C111.335 86.129 110.692 86.2335 110.064 86.3337C109.432 86.4345 108.795 86.5344 108.157 86.633C106.686 86.8601 105.261 86.9079 104.196 86.769C103.132 86.6299 102.513 86.3204 102.462 85.9111C102.411 85.5011 102.932 85.0203 103.911 84.5592C104.89 84.0983 106.251 83.6931 107.7 83.4218C108.094 83.3481 108.491 83.2726 108.891 83.1966C109.128 83.1516 109.367 83.1064 109.606 83.0605C110.245 82.9377 110.907 82.8082 111.54 82.6838C112.18 82.5582 112.828 82.4309 113.485 82.3011C114.144 82.1711 114.813 82.0383 115.494 81.9045C116.173 81.771 116.869 81.6351 117.579 81.4987C118.272 81.3654 119.064 81.2162 119.777 81.0858C120.295 80.9905 120.919 80.8814 121.448 80.7893C121.998 80.6937 122.541 80.6013 123.065 80.513C123.591 80.4245 124.101 80.3403 124.589 80.2586C124.641 80.2498 124.693 80.2409 124.745 80.232C125.176 80.1596 125.593 80.0892 125.987 80.0208C126.428 79.9444 126.846 79.8691 127.242 79.7951C127.679 79.714 127.944 79.6604 128.269 79.5936C132.494 78.6718 137.789 77.3572 142.727 76.0524C143.352 75.8876 143.975 75.7227 144.592 75.5583C147.89 74.6773 151.111 73.7859 154.377 72.8604C156.756 72.1865 159.115 71.5053 161.478 70.8139C164.961 69.7945 168.468 68.7482 171.946 67.6949C174.108 67.0402 176.259 66.3843 178.408 65.7239C184.04 63.9931 189.708 62.2226 195.388 60.4474C201.053 58.677 206.772 56.8885 212.499 55.1271C218.213 53.3699 224.157 51.5746 229.935 49.9106C234.182 48.6893 238.566 47.5318 242.641 46.4974C244.832 45.9415 246.964 45.4105 249.092 44.887C249.099 44.8854 249.107 44.8839 249.114 44.8824C250.977 44.4243 252.814 43.9772 254.636 43.5339C258.528 42.5888 262.407 41.6452 266.235 40.7094C270.064 39.7731 273.914 38.8251 277.742 37.8802C277.836 37.8571 277.93 37.834 278.023 37.8108C281.877 36.8564 285.732 35.8985 289.491 34.9613C293.364 33.9961 297.108 33.0597 300.983 32.0948C306.131 30.8106 311.64 29.457 316.926 28.2037C322.222 26.9473 327.39 25.7567 333.003 24.54C334.921 24.1235 336.83 23.7186 338.726 23.322C338.733 23.3206 338.74 23.3191 338.748 23.3177C342.267 22.5822 345.683 21.8921 349.182 21.2172C354.825 20.1341 360.358 19.1481 365.793 18.264C371.066 17.4012 377.114 16.5232 382.625 15.8331C388.103 15.1443 394.118 14.5081 399.962 14.073C405.139 13.6842 410.383 13.3971 415.641 13.2028C417.014 13.1522 418.378 13.1082 419.734 13.0709C426.019 12.8955 432.597 12.8355 438.697 12.8459C444.708 12.8527 451.259 12.9385 457.362 13.0975C463.642 13.263 469.992 13.5231 476.345 13.8974C482.87 14.2895 489.017 14.7553 495.571 15.391C501.952 16.0047 508.394 16.7498 514.853 17.6072C518.413 18.0776 522.28 18.6612 525.864 19.2499C529.491 19.8451 533.064 20.4799 536.612 21.1457C538.047 21.415 539.473 21.6888 540.886 21.9631C542.947 22.3634 544.981 22.7675 546.986 23.1691C550.371 23.8465 553.664 24.5144 556.864 25.1506C560.071 25.7884 563.151 26.3838 566.154 26.9283C569.252 27.489 571.85 27.926 574.9 28.3839C582.31 29.6534 586.914 30.6345 591.91 31.6753C592.9 31.882 593.914 32.0912 594.972 32.3083C601.08 33.5943 606.93 34.8458 612.904 36.1191C618.803 37.373 624.694 38.6161 630.575 39.8218C636.315 40.9985 642.404 42.2167 648.116 43.3081C653.938 44.4232 659.843 45.5053 665.628 46.5142C671.536 47.5442 677.45 48.5209 683.192 49.4162C686.501 49.9331 690.21 50.4984 693.361 50.9711C695.691 51.3193 698.014 51.6577 700.318 51.979C701.258 52.1102 702.197 52.239 703.132 52.3642C706.388 52.7992 709.464 53.1808 712.404 53.5016C715.365 53.8244 718.274 54.0944 721.162 54.3016C724.059 54.5098 726.932 54.654 729.639 54.7284C732.495 54.8055 734.894 54.8248 738.002 54.7825C740.028 54.753 742.03 54.7122 744.043 54.6625C747.099 54.589 749.813 54.4824 752.761 54.3577C755.672 54.2319 758.581 54.0839 761.541 53.9098C762.493 53.8539 763.502 53.7926 764.464 53.7308C767.533 53.5396 770.15 53.3248 773.022 53.083C775.846 52.8415 778.676 52.5745 781.525 52.2777C784.357 51.9805 787.327 51.6538 790.076 51.2977C794.76 50.6915 799.34 50.276 803.414 49.923C807.486 49.5721 811.629 49.2453 815.131 48.9374C815.812 48.8784 816.494 48.8185 817.178 48.7577C820.123 48.4973 823.053 48.2267 825.97 47.9326C829.565 47.5704 833.141 47.1742 836.775 46.7347C836.882 46.7218 836.99 46.7088 837.097 46.6957C840.686 46.2629 844.346 45.8547 847.987 45.4702C851.787 45.0693 855.419 44.7103 859.229 44.3427C863.03 43.9805 866.924 43.591 871.239 43.2118C875.405 42.8376 879.774 42.4936 884.266 42.2287C888.793 41.9632 893.239 41.7733 897.707 41.6657C902.158 41.5565 906.8 41.5314 911.128 41.5664C915.53 41.6026 919.936 41.707 924.344 41.8659C928.769 42.0254 933.146 42.2374 937.365 42.4872C944.202 42.8919 950.898 43.3577 957.634 43.8675C964.38 44.3787 971.017 44.9257 977.697 45.5032C984.398 46.0825 990.987 46.6799 997.622 47.297C1004.28 47.9165 1010.85 48.5429 1017.45 49.1757C1018.91 49.3156 1020.37 49.4558 1021.83 49.596C1026.98 50.091 1032.05 50.5795 1037.16 51.065C1037.19 51.0688 1037.23 51.0727 1037.26 51.0765C1043.83 51.7001 1050.24 52.3022 1056.73 52.8812C1059.11 53.0929 1061.4 53.2939 1063.72 53.4909C1066.05 53.6882 1068.33 53.8744 1070.63 54.0552C1072.59 54.2095 1074.54 54.3566 1076.48 54.4946C1076.81 54.5184 1077.14 54.542 1077.47 54.5653C1079.75 54.7251 1081.97 54.8725 1084.21 55.0062C1086.27 55.1296 1088.31 55.2359 1090.53 55.3521C1090.74 55.3627 1090.94 55.3732 1091.14 55.3837C1093.58 55.5103 1096.35 55.6704 1098.92 55.8554C1105.71 56.3503 1112.35 56.787 1119.08 57.1728C1125.8 57.5583 1132.55 57.8887 1139.3 58.1677C1141.94 58.2771 1144.57 58.3766 1147.23 58.4719C1151.36 58.6199 1155.5 58.7511 1159.63 58.8684C1166.4 59.061 1173.29 59.2192 1180.11 59.344C1186.88 59.4693 1193.83 59.5595 1200.59 59.6068C1207.37 59.6544 1214.3 59.6481 1221 59.5807C1228.55 59.5017 1236.01 59.3163 1243.48 58.9825C1251.02 58.639 1258.34 58.1754 1265.82 57.5015C1273.24 56.8363 1280.6 55.9946 1287.95 54.9291C1295.22 53.8823 1302.62 52.5729 1309.79 51.0496C1314.1 50.1352 1318.46 49.1039 1322.73 47.9949C1324.93 47.2454 1327.01 46.5135 1329.04 45.7747C1343.96 40.264 1354.32 35.6347 1367.65 28.6131C1368.91 27.9206 1369.91 27.3261 1371.13 26.5947C1371.37 26.4551 1371.61 26.3073 1371.86 26.1556C1373.45 25.1934 1375.28 24.0853 1377.82 22.5462C1382.89 19.4435 1390.68 14.8319 1400.54 7.97974C1403 6.26875 1404.97 5.54409 1404.98 6.49038C1404.98 7.15407 1404.02 8.47782 1402.59 9.81917C1405.45 7.58743 1408.26 5.26486 1411 2.84487C1412.1 1.87961 1413.21 1.04156 1414.09 0.525465C1414.91 0.0478216 1415.47 -0.114848 1415.68 0.0814814C1415.68 0.0814964 1415.68 0.0815114 1415.68 0.0815188C1415.7 0.0968999 1415.72 0.114485 1415.73 0.134284C1415.9 0.406297 1415.64 1.0834 1415.01 2.01696C1414.39 2.94957 1413.44 4.05727 1412.36 5.08024C1409.52 7.79526 1406.62 10.3877 1403.66 12.8978C1400.66 15.4335 1397.63 17.858 1394.52 20.1951C1391.42 22.5275 1388.25 24.7821 1385.01 26.9504C1381.79 29.11 1378.5 31.1848 1375.15 33.1714C1371.79 35.1701 1368.44 37.0468 1364.97 38.8701C1362.9 39.9643 1360.79 41.0326 1358.7 42.0511C1357.93 42.4307 1357.17 42.7986 1356.4 43.162C1355.78 43.4589 1355.15 43.7543 1354.5 44.0561C1347.65 47.2468 1340.66 50.1122 1333.54 52.7034C1326.42 55.2931 1319.2 57.5908 1311.89 59.6404C1304.64 61.6736 1297.15 63.4958 1289.78 65.0577C1282.32 66.6385 1274.86 67.9916 1267.32 69.1691C1259.71 70.3543 1252.29 71.3234 1244.62 72.1684C1238.75 72.8144 1232.97 73.3623 1227.08 73.8422C1224.76 74.146 1222.5 74.4264 1220.26 74.6894C1213.76 75.4545 1207.1 76.2644 1200.66 76.9887C1212.26 76.3744 1221.44 75.4598 1230.29 74.437C1231.47 74.2996 1232.64 74.1595 1233.8 74.0179C1245.63 72.5501 1257.06 71.0167 1272.44 68.7141C1316.01 61.9758 1339.86 51.9767 1354.36 45.7102C1368.81 39.1911 1374.77 35.705 1380.54 32.8749C1388.78 28.9327 1402.95 18.3799 1409.27 12.1936C1411.61 10.0144 1413.86 8.58517 1414.36 9.09742C1414.86 9.60788 1413.44 11.9411 1411.12 14.2131C1404.5 20.986 1389.15 32.9013 1379.21 37.6663C1374.82 39.7903 1369.99 42.7668 1355.65 49.5306C1341.24 56.0158 1317.36 66.5596 1273.24 73.9502C1258.25 76.3796 1247.15 78.0094 1235.33 79.6104C1234.17 79.7651 1233 79.9197 1231.81 80.0709C1231.8 80.0715 1231.79 80.0722 1231.79 80.0728C1220.82 81.4571 1208.88 82.7452 1192.76 83.4217C1155.47 85.1797 1105.31 83.5263 1093.39 83.3782C1091.05 83.3606 1088.79 83.3592 1086.4 83.3527C1082.91 83.3429 1079.15 83.3245 1074.45 83.2263C1066.82 83.0661 1056.7 82.6952 1041.34 81.755C1035.9 81.4216 1029.54 80.9647 1022.65 80.4276C1012.13 80.4456 1002.07 80.4304 993.226 80.2039C985.653 80.0127 978.617 80.2271 971.806 80.5517C969.849 80.6455 967.884 80.7514 965.928 80.8589C961.236 81.1196 956.399 81.3819 951.819 81.5404C948.139 81.6649 944.386 81.868 940.264 82.0882C925.5 82.9325 907.837 83.9715 885.271 83.7793C868.651 83.66 853.466 83.9809 840.337 84.8167C834.06 85.2267 828.206 85.533 822.721 85.7685C829.131 85.5645 834.987 85.3488 840.364 85.1339C845.611 84.9526 850.367 84.9207 854.738 84.95C856.348 84.9595 857.766 84.9835 859.202 85.0093C869.325 85.2056 876.759 85.5782 884.75 85.6126C922.946 86.1011 937.603 87.023 954.012 86.4378C958.355 86.3202 963.216 86.1131 968.354 85.8976C978.722 85.4733 990.574 85.0453 1003.36 85.3056C1015.19 85.5396 1028.52 85.5676 1042.67 85.5458C1042.68 85.5463 1042.68 85.5467 1042.69 85.5472C1045.44 85.5418 1048.23 85.5348 1051.05 85.5265C1058.66 85.5045 1066.46 85.4742 1074.3 85.4551C1084.16 85.4319 1094.1 85.4189 1103.88 85.4696C1105.76 85.4795 1108.02 85.4716 1110.61 85.4546C1125.52 85.3133 1151.7 85.1467 1183.64 85.5725C1190.67 85.6524 1197.99 85.8657 1206.32 85.9328C1208.88 85.9516 1211.53 85.9573 1214.29 85.9355C1226.15 85.821 1240.72 85.3635 1259.93 82.8768C1275.83 80.7936 1294.94 77.1625 1314.48 71.2663C1324.08 68.371 1333.65 64.9767 1342.99 61.0535C1371 49.289 1394.87 33.5915 1414.34 13.7268C1414.34 13.7227 1414.34 13.7187 1414.35 13.7146C1416.65 11.3784 1418.8 9.86542 1419.23 10.4382C1419.65 11.0089 1418.21 13.5151 1415.93 15.9368C1396.55 36.4573 1372.58 52.7818 1344.39 65.1182C1335.11 69.1834 1325.52 72.7503 1315.85 75.8149C1296.01 82.1133 1276.42 86.0762 1260.21 88.3613C1240.45 91.1189 1225.53 91.6914 1213.38 91.8927C1210.45 91.9354 1207.67 91.9479 1205.05 91.9437C1196.77 91.9235 1189.81 91.7564 1183.11 91.7207C1151.96 91.4919 1126.64 91.758 1111.61 91.9391C1108.94 91.9639 1106.6 91.9771 1104.6 91.9711C1094.46 91.9419 1084.12 91.9741 1073.84 92.0047C1066.59 92.0267 1059.37 92.0567 1052.26 92.078C1049.47 92.0865 1046.7 92.0927 1043.95 92.0981C1043.95 92.0987 1043.94 92.0993 1043.94 92.0999C1029.78 92.1232 1016.21 92.0896 1004.15 91.8437C991.845 91.5875 981.2 91.9731 971.163 92.3676C965.811 92.5818 960.692 92.8002 955.582 92.9271C938.255 93.5121 922.769 92.5305 884.796 91.9965ZM1398.09 13.2325C1391.92 17.5305 1386.84 20.7834 1383.04 23.2327C1386.33 21.2568 1389.56 19.1896 1392.73 17.0279C1394.53 15.7958 1396.32 14.5315 1398.09 13.2325ZM1022.22 73.8773C1023.5 73.8748 1024.75 73.8696 1026.02 73.8652C1022.55 73.6342 1019.01 73.393 1015.52 73.1562C1011.22 72.8646 1006.94 72.572 1002.66 72.2815C1009.45 72.8505 1016.05 73.3959 1022.22 73.8773ZM885.244 77.3919C906.682 77.5446 923.086 76.5439 937.699 75.6689C941.963 75.4275 946.086 75.2105 950.126 75.0635C951.808 75.003 953.494 74.9269 955.199 74.8426C945.417 74.0763 936.285 73.4293 928.947 72.9646C906.806 71.5804 894.378 70.8553 883.253 70.331C880.043 70.1858 876.983 70.0684 873.887 69.9874C871.372 70.2316 868.564 70.4946 865.862 70.7507C862.036 71.112 858.035 71.5085 854.136 71.9128C850.175 72.3211 846.212 72.7576 842.385 73.2101C841.377 73.3292 840.376 73.4498 839.381 73.572C836.363 73.935 833.393 74.2664 830.461 74.5711C826.727 74.9597 823.053 75.3037 819.541 75.6134C819.34 75.6311 819.139 75.6487 818.938 75.6662C815.278 75.9888 811.574 76.2863 808.107 76.5847C804.61 76.8881 801.744 77.1635 799.222 77.4936C796.073 77.9047 792.877 78.2868 789.751 78.6276C786.455 78.9741 783.156 79.2814 779.932 79.5509C776.696 79.821 773.53 80.0545 770.391 80.2564C769.377 80.3217 768.319 80.3866 767.321 80.4449C766.865 80.4717 766.391 80.4988 765.901 80.5242C772.063 80.5735 778.452 80.5607 785.323 80.4683C795.111 80.3355 805.296 80.1576 816.851 79.7136C823.853 79.4486 831.441 79.0781 839.802 78.5213C853.018 77.656 868.288 77.2951 885.244 77.3919ZM670.972 73.7883C673.624 74.1827 677.533 74.7272 682.718 75.3652C683.944 75.5159 685.244 75.67 686.615 75.8296C686.583 75.8241 686.55 75.8198 686.518 75.8142C683.145 75.2277 680.079 74.6745 676.814 74.0783C671.083 73.0288 665.283 71.9155 659.612 70.7672C654.014 69.6323 648.142 68.395 642.522 67.1541C636.988 65.9326 631.048 64.5786 625.528 63.2776C619.894 61.9528 614.183 60.5708 608.656 59.2216C606.842 58.7788 605.028 58.3349 603.227 57.8933C607.237 59.0574 611.332 60.197 615.711 61.3784C619.202 62.3205 622.966 63.3097 626.744 64.2929C628.21 64.6735 629.989 65.1472 632.085 65.6939C640.481 67.8643 653.304 71.1406 670.972 73.7883ZM558.403 47.6841C557.109 47.382 555.826 47.0803 554.56 46.7788C550.946 45.9176 547.432 45.0623 543.994 44.2357C541.577 43.6546 539.196 43.0852 536.846 42.5364C535.855 42.3048 534.864 42.0762 533.881 41.8514C532.236 41.4748 530.601 41.1093 528.974 40.7529C540.3 43.5219 551.339 46.5084 562.9 49.6266C563.053 49.6678 563.207 49.7077 563.361 49.7493C561.667 49.0417 560.015 48.3533 558.403 47.6841Z" fill="#FFD983"/>
</svg>
