<svg width="1380" height="108" viewBox="0 0 1380 108" fill="none" xmlns="http://www.w3.org/2000/svg">
<path d="M515.5 49.6085C523.842 48.6637 531.989 48.1213 542.086 47.4234C542.091 47.4228 542.097 47.4222 542.102 47.4216C543.527 47.3238 545.002 47.2228 546.532 47.1145C558.952 46.2276 575.175 44.9556 599.247 42.2705C603.262 41.8216 607.195 41.4044 611.03 41.0176C631.973 38.9073 649.236 37.5763 660.404 37.174C662.826 37.0866 665.446 36.8449 671.714 36.0446C675.835 35.5187 681.493 34.7516 689.571 33.6723C693.931 33.0889 698.875 32.4322 704.793 31.6613C724.285 29.1214 754.769 24.7444 783.157 21.6136C800.368 19.6941 816.813 18.2475 829.304 17.487C847.633 16.3779 865.46 15.9495 884.999 16.7654C902.851 17.7128 922.29 18.8947 944.901 25.8799C956.733 29.7755 968.973 35.8622 977.721 47.1291C980.172 50.5135 983.078 53.5844 986.47 56.3335C987.843 57.4496 989.337 58.5365 990.873 59.5455C1001.47 66.5163 1015.34 70.5908 1030.63 72.4133C1058.12 75.3736 1080.95 72.5938 1105.47 69.4268C1115.25 68.0965 1125.19 66.5738 1136.03 64.8482C1153.19 62.1408 1178.04 57.9404 1202.77 53.5191C1204.86 53.1461 1206.97 52.7685 1209.08 52.3899C1209.09 52.3879 1209.1 52.386 1209.12 52.3841C1231.84 48.31 1254.11 44.2474 1270.51 41.2508C1296.53 36.4923 1306.28 34.6402 1314.42 33.0778C1317.48 32.4946 1320.4 31.9421 1323.73 31.3425C1335.87 29.1567 1354.51 26.183 1373.19 23.4326C1373.27 23.4219 1373.34 23.4112 1373.41 23.4005C1376.54 22.9407 1379.15 23.0498 1379.23 23.6392C1379.31 24.2287 1376.83 25.0951 1373.71 25.5786C1363.78 27.1105 1354.08 28.6635 1345.44 30.1067C1345.09 30.7387 1342.86 31.5505 1340.07 32.0223C1332.98 33.2266 1311.78 37.2487 1278.47 44.3589C1280.78 44.0473 1282.74 43.8003 1284.45 43.5912C1286.47 43.3443 1287.95 43.1787 1289.27 43.0285C1291.99 42.7182 1293.81 42.5079 1297.03 42.0007C1304.54 40.7028 1316.09 38.573 1328.34 36.389C1331.42 35.8403 1334.02 35.9404 1334.13 36.612C1334.23 37.284 1331.8 38.2914 1328.72 38.8631C1328.66 38.8744 1328.6 38.8856 1328.54 38.8969C1316.43 41.137 1304.51 43.4123 1296.7 44.812C1294.73 45.1648 1293.03 45.4588 1291.76 45.6739C1290.75 45.8458 1289.48 46.0574 1288.77 46.1497C1288.68 46.162 1288.5 46.1847 1288.29 46.2078C1288.28 46.208 1288.28 46.2083 1288.28 46.2085C1288.16 46.2215 1287.55 46.2884 1286.88 46.3028C1286.75 46.3057 1286.46 46.3108 1286.12 46.2937C1286.03 46.3041 1285.94 46.3147 1285.86 46.3252C1284.64 46.4724 1283.4 46.6218 1282.07 46.7923C1276.86 47.4566 1268.66 48.6085 1251.74 51.4155C1236.02 54.0027 1209.89 58.9804 1176.92 65.0785C1179.15 64.7402 1181.4 64.3929 1183.66 64.0376C1189.3 63.1502 1194.84 62.2479 1200.57 61.2903C1202.75 60.9268 1204.83 60.5789 1207 60.2111C1210.48 59.6217 1214 59.0189 1217.54 58.4055C1219.88 58.0028 1222.23 57.5944 1224.59 57.1832C1224.6 57.1821 1224.6 57.1811 1224.61 57.18C1227.88 56.61 1231.21 56.0278 1234.55 55.444C1235.7 55.2451 1236.83 55.0471 1237.97 54.8493C1242.46 54.0636 1246.96 53.2731 1252.12 52.4397C1252.74 52.3477 1253.41 52.2534 1253.92 52.1862C1254.46 52.1133 1254.99 52.0448 1255.48 51.9823C1255.92 51.9271 1256.34 51.8763 1256.74 51.8267C1256.79 51.82 1256.84 51.8133 1256.9 51.8066C1257.35 51.751 1257.78 51.6966 1258.19 51.6439C1258.6 51.5912 1259 51.5403 1259.39 51.487C1259.39 51.4863 1259.4 51.4856 1259.4 51.4849C1259.81 51.4287 1260.12 51.3859 1260.55 51.3214C1261.09 51.2405 1261.56 51.1685 1262.12 51.0769C1262.67 50.9883 1263.24 50.893 1263.82 50.7943C1264.39 50.6956 1264.98 50.5928 1265.58 50.487C1266.17 50.3812 1266.78 50.2725 1267.39 50.1615C1268 50.0506 1268.62 49.9366 1269.23 49.8255C1269.84 49.7136 1270.46 49.6002 1271.08 49.4858C1272.51 49.2226 1273.91 49.1077 1274.97 49.171C1276.03 49.2344 1276.66 49.4688 1276.72 49.8289C1276.78 50.189 1276.27 50.6495 1275.3 51.1148C1274.33 51.5799 1272.98 52.0111 1271.56 52.315C1271.17 52.3976 1270.78 52.4811 1270.39 52.5643C1270.16 52.6137 1269.92 52.6631 1269.69 52.7126C1269.07 52.8447 1268.42 52.9837 1267.77 53.1201C1267.12 53.2567 1266.47 53.393 1265.81 53.5297C1265.14 53.6668 1264.47 53.8046 1263.79 53.9414C1263.11 54.0778 1262.42 54.2147 1261.72 54.3499C1261.03 54.4822 1260.25 54.628 1259.55 54.7532C1259.03 54.8453 1258.4 54.9527 1257.88 55.0407C1257.33 55.1325 1256.79 55.2201 1256.27 55.3026C1255.74 55.3854 1255.24 55.463 1254.76 55.5374C1254.71 55.5455 1254.66 55.5535 1254.6 55.5616C1254.18 55.6273 1253.77 55.6904 1253.38 55.7511C1252.95 55.819 1252.54 55.8851 1252.15 55.9494C1251.73 56.0195 1251.46 56.0673 1251.13 56.126C1246.85 56.9524 1241.61 58.0338 1236.67 59.0533C1236.05 59.1814 1235.44 59.3083 1234.83 59.4339C1231.51 60.1185 1228.23 60.7986 1224.97 61.4728C1222.6 61.9635 1220.26 62.4477 1217.89 62.9369C1214.34 63.6666 1210.81 64.3891 1207.32 65.1002C1205.13 65.5442 1203.07 65.9622 1200.84 66.4097C1195.06 67.5709 1189.5 68.6743 1183.7 69.7882C1177.9 70.9029 1172.33 71.9449 1166.42 72.9944C1160.65 74.021 1154.71 75.0235 1148.86 75.9199C1144.61 76.5681 1140.23 77.1386 1136.12 77.63C1133.92 77.8917 1131.79 78.1349 1129.7 78.364C1129.69 78.3645 1129.69 78.3651 1129.68 78.3656C1127.89 78.5609 1125.96 78.7723 1124.14 78.966C1120.17 79.3891 1116.48 79.7689 1112.57 80.1807C1108.67 80.5886 1104.91 80.9794 1101.09 81.3736C1097.19 81.7775 1093.31 82.173 1089.53 82.5456C1085.6 82.9332 1081.76 83.298 1077.83 83.6436C1072.43 84.1157 1067.4 84.5123 1061.84 84.8282C1056.49 85.1341 1050.98 85.3368 1045.57 85.3744C1043.73 85.3888 1041.7 85.3785 1039.77 85.3476C1039.76 85.3474 1039.76 85.3472 1039.75 85.347C1036.17 85.2889 1032.65 85.1577 1028.99 84.9132C1023.52 84.5505 1017.84 83.9304 1012.22 82.9388C1006.6 81.948 1000.94 80.5806 995.329 78.6218C989.743 76.6685 984.118 74.0953 978.778 70.5918C974.09 67.5263 969.665 63.7403 965.949 59.5216C965.541 59.0594 965.139 58.5907 964.744 58.1156C964.36 57.651 963.958 57.1928 963.537 56.7406C960.036 53.0101 955.762 50.167 950.846 47.8027C946.135 45.5442 940.798 43.7865 935.328 42.4776C929.86 41.1684 924.162 40.2598 918.319 39.63C912.473 39.0046 906.699 38.6727 900.589 38.5219C894.767 38.3914 888.65 38.4441 882.602 38.6583C879.143 38.7746 875.641 38.9263 872.214 39.0941C868.74 39.2636 865.339 39.457 861.977 39.6722C860.609 39.7598 859.239 39.8506 857.872 39.9467C855.861 40.0876 853.932 40.2343 852.015 40.3915C848.785 40.6566 845.568 40.953 842.479 41.2807C839.428 41.606 836.442 41.967 833.541 42.37C830.515 42.7903 828.107 43.1792 825.171 43.7063C817.99 44.8637 813.583 45.476 808.631 46.1758C807.656 46.3145 806.658 46.4591 805.617 46.6119C799.725 47.4543 793.762 48.3015 787.941 49.1333C782.046 49.9741 776.219 50.8067 770.332 51.6447C764.491 52.4764 758.611 53.3091 752.748 54.1332C746.883 54.9576 741.05 55.7701 735.165 56.5762C729.287 57.3815 723.308 58.1862 717.53 58.9462C714.201 59.384 710.679 59.829 707.362 60.2413C704.98 60.5372 702.639 60.8239 700.354 61.1041C699.418 61.219 698.504 61.3307 697.564 61.4473C694.353 61.8448 691.252 62.2349 688.279 62.631C685.336 63.0223 682.377 63.4408 679.559 63.874C676.713 64.3115 674.032 64.7602 671.223 65.2661C668.334 65.7888 665.957 66.2483 662.953 66.8715C661.02 67.2751 659.045 67.6854 657.105 68.0894C654.194 68.6953 651.361 69.2903 648.494 69.8933C645.555 70.507 642.691 71.1094 639.852 71.7107C638.934 71.9048 637.997 72.1045 637.058 72.3025C634.137 72.9171 631.294 73.5199 628.5 74.119C625.79 74.7059 622.79 75.3357 620.038 75.9332C618.637 76.2362 617.261 76.5357 615.897 76.8344C614.49 77.1386 613.087 77.445 611.675 77.7566C606.865 78.8194 602.292 79.637 598.317 80.3079C594.284 80.9853 590.611 81.5566 586.803 82.1382C586.101 82.2456 585.4 82.3527 584.701 82.4595C581.688 82.9182 578.747 83.3617 575.871 83.8039C572.308 84.3509 568.942 84.882 565.395 85.4484C561.855 86.0126 558.314 86.5899 554.861 87.1721C551.376 87.7601 548.075 88.3319 544.552 88.9619C540.998 89.592 537.292 90.2914 533.347 91.0361C529.422 91.7763 525.364 92.5347 521.262 93.2587C517.007 94.0012 512.733 94.7078 508.537 95.3551C504.312 96.0064 500.242 96.5948 495.913 97.1671C491.645 97.7336 487.452 98.2479 483.332 98.719C479.315 99.1796 474.785 99.6573 470.768 100.048C464.232 100.684 457.795 101.267 451.167 101.834C444.692 102.386 438.188 102.905 431.61 103.394C425.183 103.87 418.559 104.327 412.052 104.734C405.708 105.13 398.883 105.52 392.484 105.837C391.042 105.909 389.702 105.973 388.185 106.045C382.971 106.291 377.931 106.5 372.918 106.679C372.883 106.68 372.847 106.681 372.811 106.682C366.044 106.927 359.995 107.094 353.248 107.243C350.841 107.295 348.556 107.337 346.26 107.376C344.025 107.413 341.578 107.451 339.261 107.481C337.264 107.508 335.298 107.531 333.376 107.552C333.044 107.556 332.714 107.56 332.385 107.563C330.194 107.587 327.774 107.608 325.517 107.629C323.423 107.647 321.366 107.669 319.149 107.681C318.947 107.682 318.744 107.683 318.542 107.684C316.084 107.695 313.153 107.671 310.554 107.597C303.774 107.4 296.835 107.108 289.843 106.681C282.924 106.256 275.931 105.7 268.827 104.931C266.004 104.625 263.385 104.312 260.513 103.932C256.08 103.341 251.837 102.687 247.362 101.877C240.188 100.575 232.763 98.9023 225.448 96.7315C218.165 94.5717 210.616 91.809 203.37 88.2933C196.144 84.7942 188.944 80.4131 182.395 75.0379C182.373 75.0195 182.351 75.0012 182.329 74.9828C176.468 70.0793 170.746 65.2396 165.035 60.5049C159.346 55.7875 153.632 51.1493 147.942 46.8338C142.226 42.5009 136.498 38.4673 130.65 34.9191C124.797 31.3674 118.829 28.3146 112.62 25.9018C108.911 24.4582 105.103 23.2383 101.217 22.2587C99.1263 21.8856 97.1188 21.5954 95.1657 21.3638C80.7388 19.8009 69.6859 20.6075 55.1326 22.4402C53.7383 22.641 52.5543 22.8474 51.1784 23.0949C50.9199 23.1413 50.6449 23.1905 50.3636 23.2417C48.5936 23.5649 46.4642 23.9585 43.547 24.4819C37.7614 25.5267 28.7741 27.0901 16.9517 29.3309C13.9941 29.8854 11.8788 29.7816 12.3256 28.9982C12.6368 28.449 14.1128 27.7006 15.966 27.0961C12.444 27.9338 8.84894 28.8415 5.38793 29.7476C3.98676 30.1154 2.61888 30.3689 1.60281 30.4457C0.661074 30.5163 0.0952928 30.4285 0.0110947 30.1862C0.0110894 30.1862 0.0110843 30.1862 0.0110791 30.1862C0.00446379 30.1672 0.000795603 30.1473 0.000120163 30.1264C-0.00941873 29.8395 0.552774 29.3921 1.5491 28.8802C2.54527 28.369 3.8895 27.8386 5.28066 27.4181C8.89412 26.3285 12.7445 25.203 16.3844 24.1916C20.0483 23.1718 23.8509 22.1555 27.5077 21.2387C31.3316 20.2756 34.9008 19.4362 38.7401 18.5974C42.4062 17.8006 46.2746 17.0295 49.94 16.3891C53.8056 15.7103 57.4106 15.1634 61.2508 14.6878C63.4798 14.4137 65.8067 14.1679 68.0514 13.9759C68.886 13.9047 69.6931 13.8406 70.4941 13.784C71.1618 13.7365 71.8546 13.6917 72.549 13.6515C79.8051 13.227 87.1141 13.3154 94.2478 14.093C101.416 14.8681 108.451 16.3502 115.274 18.5424C122.104 20.7298 128.717 23.6166 135.147 27.0008C141.575 30.3827 147.819 34.2423 153.979 38.3572C160.109 42.4524 166.216 46.8453 172.218 51.2581C176.856 54.6688 181.499 58.1413 186.123 61.5968C187.528 62.5513 188.937 63.5139 190.35 64.4814C190.839 64.8172 191.331 65.1484 191.828 65.4749C197.629 69.2958 203.957 72.2493 210.169 74.496C202.609 71.3017 196.301 67.7857 190.805 63.878C188.47 62.2201 186.295 60.6841 184.116 59.1462C183.151 58.4644 182.201 57.7941 181.261 57.1316C171.649 50.4027 162.465 43.7051 149.999 35.3556C114.544 11.11 88.3251 12.0453 73.281 12.3326C57.8789 13.1191 51.1606 14.4388 44.9886 15.0082C36.1372 15.8607 19.3542 20.1105 11.1889 22.7715C8.11103 23.7355 5.63012 24.0084 5.42896 23.4087C5.25416 22.8019 7.42769 21.4895 10.4996 20.4534C19.1195 17.4558 37.3053 12.452 47.9352 11.4094C52.7361 10.9796 57.9632 9.79793 73.5272 8.76898C88.4968 8.25443 116.008 6.99365 152.605 31.4622C164.929 39.5188 173.906 45.9144 183.494 52.4962C184.428 53.1423 185.378 53.7978 186.343 54.4667C186.349 54.4711 186.354 54.4754 186.36 54.4798C188.843 56.202 191.256 57.8724 193.925 59.7375C200.712 64.461 208.947 68.6814 219.68 72.3998C254.06 84.458 303.307 83.3438 314.754 83.0575C317.078 82.9728 319.239 82.8618 321.51 82.7359C324.798 82.5517 328.667 82.3321 333.071 82.0747C340.386 81.6491 350.297 81.1353 365.112 80.2453C370.473 79.9234 376.502 79.5741 383.298 79.1606C393.346 77.8098 403.252 76.4108 411.576 75.3609C418.991 74.4375 425.597 73.2254 432.134 71.9295C434.02 71.556 435.93 71.1682 437.852 70.778C442.311 69.8525 446.784 68.9136 451.255 68.0846C454.843 67.4215 458.523 66.6763 462.352 65.8866C476.657 62.971 493.432 59.4343 515.895 56.8821C539.366 54.21 560.068 52.0038 577.342 50.1493C564.527 51.3955 554.439 52.1833 546.189 52.7777C544.635 52.8895 543.152 52.994 541.73 53.0932C531.475 53.8185 524.001 54.3187 516.222 55.2097C478.34 59.5056 464.339 61.2442 448.402 64.1395C444.163 64.8968 439.818 65.7776 434.71 66.7474C424.733 68.6644 413.361 70.7911 401.194 72.3232C389.644 73.7632 377.124 75.4727 363.406 77.0658C363.401 77.0661 363.395 77.0663 363.39 77.0665C360.719 77.3767 358.234 77.6736 355.4 77.9737C348 78.7748 340.562 79.5045 333.047 80.0983C323.535 80.8458 313.907 81.3782 304.557 81.5557C302.706 81.5883 300.513 81.6347 298.048 81.6716C283.866 81.6877 257.886 82.4482 228.534 73.4557C222.141 71.3993 215.732 68.7684 208.904 64.9575C206.777 63.7659 204.762 62.5337 202.596 61.0843C200.571 59.7239 198.433 58.1628 196.379 56.4795C188.691 50.2517 179.581 42.8536 167.699 34.3687C155.032 25.4452 138.687 14.7285 119.13 8.73201C109.541 5.77729 99.4058 4.14113 89.3943 3.79577C59.1347 3.0398 32.8038 11.05 7.49724 19.678C7.49198 19.6799 7.48672 19.6818 7.48145 19.6837C4.53045 20.7138 2.06117 21.0799 1.95963 20.4559C1.87892 19.8267 4.14892 18.4007 7.12733 17.2895C32.428 8.15761 58.716 -0.374128 89.8057 0.0124531C99.9597 0.240998 110.416 1.78261 120.351 4.71117C140.821 10.7117 157.871 21.7001 170.859 30.6731C182.705 38.97 191.821 46.2235 199.503 52.3347C201.729 54.1303 204.001 55.7421 206.223 57.1736C208.361 58.5491 210.423 59.7459 212.453 60.834C218.93 64.2805 224.755 66.5753 230.601 68.4002C258.14 76.5989 282.968 75.9926 297.014 75.9423C299.504 75.9035 301.742 75.8559 303.67 75.8207C313.283 75.6361 323.136 75.0746 332.978 74.2906C339.832 73.7393 346.734 73.0711 353.53 72.3392C356.254 72.05 358.868 71.7549 361.453 71.4533C361.458 71.4521 361.464 71.451 361.469 71.4498C375.146 69.8814 387.849 68.1634 399.507 66.7175C411.221 65.2551 421.524 63.3435 431.012 61.5215C436.243 60.5308 441.065 59.5811 445.931 58.7108C462.852 55.6656 477.525 53.8705 515.5 49.6085ZM21.4362 25.829C28.7449 24.3554 34.6192 23.2091 39.0852 22.3121C35.2126 22.9861 31.6701 23.6466 27.791 24.4588C25.6996 24.8891 23.5926 25.3426 21.4362 25.829ZM384.567 84.8415C383.33 85.0073 382.092 85.1728 380.857 85.3369C384.255 85.1025 387.851 84.8464 391.129 84.5981C395.252 84.2874 399.452 83.958 403.728 83.6075C396.867 84.0729 390.711 84.4635 384.567 84.8415ZM516.601 62.4884C495.303 64.9318 480.102 68.1809 465.724 71.1165C461.64 71.9545 457.925 72.7342 453.867 73.4824C452.224 73.7887 450.593 74.1083 448.96 74.4368C458.784 73.6163 467.227 72.8731 474.645 72.1934C496.071 70.2235 508.314 69.2955 519.287 68.4592C522.349 68.2277 525.319 67.9979 528.373 67.7427C530.867 67.2576 533.476 66.7584 536.136 66.2739C539.912 65.587 543.801 64.8915 547.555 64.2417C551.325 63.5889 555.198 62.9394 559.043 62.3158C562.97 61.6807 566.685 61.0923 570.43 60.5127C573.956 59.9666 577.504 59.4295 580.966 58.9028C581.164 58.8727 581.362 58.8426 581.561 58.8125C585.229 58.2537 588.822 57.7047 591.975 57.1797C595.226 56.6386 597.947 56.1437 600.361 55.6185C603.377 54.9631 606.495 54.303 609.604 53.6599C610.622 53.4491 611.642 53.2397 612.663 53.0316C614.656 52.6181 616.678 52.2028 618.727 51.7857C621.812 51.1597 624.803 50.5512 627.799 49.946C628.772 49.7496 629.798 49.5434 630.776 49.3474C631.227 49.2571 631.678 49.1659 632.13 49.0757C626.129 49.9278 619.912 50.779 613.602 51.5793C613.229 51.6265 612.857 51.6733 612.484 51.7197C603.308 52.8696 593.975 53.9191 583.423 55.0808C564.715 57.1346 543.05 59.4414 516.601 62.4884ZM722.647 35.0638C720.051 35.4485 716.206 36.0432 711.314 36.8132C710.154 36.9956 708.945 37.1884 707.657 37.392C707.688 37.3888 707.719 37.3842 707.75 37.381C710.945 37.047 713.891 36.7349 717.09 36.3809C722.82 35.7451 728.289 35.1322 733.899 34.4921C739.499 33.8539 745.088 33.2087 750.686 32.5609C756.289 31.9125 761.908 31.2588 767.486 30.612C773.11 29.9595 778.666 29.3192 784.27 28.6739C786.054 28.4685 787.838 28.2632 789.626 28.0579C785.622 28.3609 781.462 28.7206 777.055 29.122C773.54 29.442 769.891 29.7852 766.037 30.1475C764.564 30.286 762.775 30.4422 760.696 30.6272C752.448 31.3611 739.516 32.5624 722.647 35.0638ZM834.463 22.7689C835.777 22.6539 837.079 22.5461 838.363 22.448C841.983 22.1707 845.645 21.9476 849.152 21.7695C851.637 21.6437 853.994 21.5427 856.465 21.4504C857.494 21.412 858.518 21.3757 859.53 21.3428C861.225 21.2879 862.898 21.2386 864.549 21.197C852.807 21.25 841.504 21.6725 829.611 22.4412C829.453 22.4515 829.295 22.4632 829.136 22.4737C830.961 22.5683 832.736 22.667 834.463 22.7689Z" fill="#FFD983"/>
</svg>
