<svg width="1413" height="281" viewBox="0 0 1413 281" fill="none" xmlns="http://www.w3.org/2000/svg">
<path d="M570.688 -1.33514e-05C580.172 0.0575275 589.712 0.607727 601.071 1.57285C601.077 1.57314 601.084 1.57343 601.09 1.57372C602.722 1.71291 604.398 1.8628 606.126 2.02194C620.327 3.38192 638.712 5.12527 666.06 9.69077C696.769 14.8786 719.937 22.9898 734.045 29.2533C736.65 30.4231 739.192 31.3986 746.106 34.1991C750.663 36.0721 756.794 38.6111 765.14 42.7182C769.725 44.9817 775.067 47.7798 780.966 51.2734C800.713 62.5683 830.825 85.725 846.664 116.874C854.312 131.3 858.864 146.279 861.179 159.48C861.742 162.657 862.346 165.571 862.958 168.225C867.106 186.013 873.735 202.257 885.34 216.629C895.935 229.726 911 240.979 931.563 248.513C947.382 254.303 963.778 258.214 980.977 260.731C983.169 261.05 985.397 261.344 987.653 261.615C1002.83 263.457 1019.04 264.176 1036.25 263.447C1067.17 262.008 1091.69 257.359 1118.53 251.48C1129.07 249.138 1139.85 246.562 1151.69 243.644C1170.25 239.094 1197.01 232.185 1223.69 224.61C1225.96 223.967 1228.24 223.318 1230.51 222.669C1230.52 222.666 1230.53 222.663 1230.54 222.66C1254.97 215.674 1278.83 208.425 1296.33 202.912C1324.08 194.147 1334.43 190.463 1343.09 187.425C1346.34 186.282 1349.28 185.244 1352.9 184.025C1366.02 179.618 1385.52 173.641 1405.85 167.746C1405.92 167.723 1406 167.701 1406.07 167.679C1409.4 166.715 1412.36 167.035 1412.73 168.367C1413.1 169.7 1410.74 171.54 1407.43 172.501C1396.74 175.597 1386.45 178.672 1377.11 181.547C1376.99 182.827 1374.67 184.474 1371.75 185.362C1364.37 187.584 1341.61 195.616 1306.31 208.117C1308.83 207.565 1310.91 207.139 1312.79 206.766C1314.98 206.329 1316.67 206.017 1318.12 205.748C1321.13 205.188 1323.14 204.814 1326.6 203.918C1334.5 201.669 1347.08 197.783 1360.2 193.765C1363.54 192.743 1366.54 192.997 1366.93 194.322C1367.32 195.648 1364.96 197.542 1361.62 198.564C1361.56 198.584 1361.49 198.604 1361.43 198.624C1348.44 202.601 1335.47 206.609 1327.21 208.958C1325.09 209.562 1323.25 210.067 1321.87 210.436C1320.76 210.732 1319.38 211.096 1318.6 211.255C1318.49 211.276 1318.29 211.315 1318.05 211.355C1318.05 211.355 1318.05 211.356 1318.04 211.356C1317.91 211.378 1317.22 211.493 1316.46 211.516C1316.31 211.521 1315.98 211.529 1315.58 211.498C1315.48 211.516 1315.39 211.534 1315.29 211.551C1313.96 211.8 1312.6 212.051 1311.16 212.335C1305.54 213.433 1296.49 215.454 1278.14 220.19C1261.16 224.54 1232.82 232.835 1197.18 242.431C1199.62 241.882 1202.06 241.326 1204.49 240.763C1210.6 239.345 1216.75 237.864 1222.89 236.345C1225.24 235.764 1227.55 235.186 1229.91 234.591C1233.71 233.634 1237.51 232.663 1241.31 231.681C1243.88 231.017 1246.45 230.347 1249.02 229.673C1249.03 229.671 1249.03 229.67 1249.04 229.668C1252.61 228.733 1256.18 227.79 1259.78 226.837C1261.04 226.506 1262.28 226.177 1263.52 225.85C1268.41 224.549 1273.27 223.246 1278.86 221.861C1279.54 221.706 1280.29 221.546 1280.84 221.433C1281.44 221.309 1282.02 221.194 1282.57 221.088C1283.05 220.995 1283.51 220.91 1283.95 220.827C1284.01 220.815 1284.07 220.804 1284.13 220.793C1284.62 220.699 1285.1 220.609 1285.55 220.52C1286 220.432 1286.44 220.348 1286.86 220.259C1286.87 220.258 1286.87 220.257 1286.87 220.255C1287.32 220.162 1287.66 220.091 1288.13 219.984C1288.72 219.849 1289.22 219.73 1289.83 219.578C1290.42 219.432 1291.03 219.275 1291.66 219.11C1292.28 218.945 1292.92 218.774 1293.56 218.597C1294.2 218.421 1294.86 218.239 1295.52 218.055C1296.17 217.87 1296.84 217.681 1297.51 217.49C1298.17 217.3 1298.85 217.107 1299.53 216.913C1301.09 216.466 1302.65 216.273 1303.88 216.386C1305.11 216.499 1305.9 216.907 1306.08 217.525C1306.26 218.143 1305.83 218.927 1304.87 219.71C1303.9 220.494 1302.49 221.212 1300.95 221.713C1300.52 221.85 1300.1 221.988 1299.68 222.125C1299.42 222.207 1299.17 222.288 1298.92 222.37C1298.23 222.59 1297.54 222.813 1296.85 223.035C1296.15 223.256 1295.45 223.477 1294.74 223.699C1294.03 223.921 1293.3 224.146 1292.57 224.365C1291.84 224.584 1291.1 224.804 1290.34 225.021C1289.6 225.233 1288.75 225.467 1287.99 225.668C1287.44 225.816 1286.75 225.988 1286.17 226.13C1285.57 226.277 1284.98 226.418 1284.41 226.551C1283.84 226.684 1283.28 226.809 1282.75 226.929C1282.69 226.942 1282.64 226.955 1282.58 226.968C1282.11 227.074 1281.66 227.176 1281.23 227.274C1280.75 227.384 1280.3 227.491 1279.87 227.595C1279.4 227.71 1279.12 227.785 1278.77 227.878C1274.17 229.191 1268.51 230.917 1263.13 232.541C1262.45 232.745 1261.78 232.947 1261.11 233.148C1257.57 234.216 1254.03 235.281 1250.49 236.339C1247.91 237.109 1245.34 237.873 1242.76 238.635C1238.97 239.755 1235.16 240.868 1231.34 241.968C1228.97 242.651 1226.65 243.315 1224.28 243.987C1218.09 245.74 1211.88 247.461 1205.65 249.127C1199.43 250.79 1193.11 252.423 1186.81 253.971C1180.55 255.508 1173.94 257.049 1167.59 258.405C1162.91 259.404 1158.15 260.278 1153.62 261.063C1151.2 261.48 1148.84 261.876 1146.51 262.256C1146.51 262.257 1146.5 262.258 1146.49 262.259C1144.45 262.592 1142.43 262.914 1140.44 263.233C1136.18 263.912 1131.94 264.591 1127.71 265.279C1123.49 265.963 1119.32 266.65 1115.13 267.346C1111.01 268.031 1106.65 268.768 1102.45 269.474C1098.21 270.187 1094.11 270.878 1089.75 271.6C1083.93 272.563 1078.2 273.485 1072.37 274.352C1066.61 275.212 1060.53 276.046 1054.66 276.761C1052.6 277.012 1050.54 277.25 1048.48 277.477C1048.47 277.478 1048.46 277.479 1048.46 277.479C1044.54 277.911 1040.63 278.299 1036.75 278.637C1030.79 279.154 1024.73 279.567 1018.61 279.834C1012.53 280.099 1006.48 280.223 1000.21 280.157C993.999 280.087 987.773 279.838 981.271 279.284C975.533 278.794 969.97 278.13 964.24 277.246C962.752 277.015 961.273 276.772 959.803 276.516C952.949 275.323 945.979 273.798 939.456 272.066C932.94 270.343 926.166 268.221 919.781 265.794C913.143 263.264 906.847 260.439 900.435 256.92C894.081 253.427 888.073 249.492 882.279 244.887C876.519 240.302 871.205 235.246 866.231 229.506C863.536 226.404 860.832 222.897 858.439 219.394C855.97 215.773 853.908 212.378 851.912 208.714C851.109 207.239 850.335 205.744 849.587 204.235C848.489 202.021 847.477 199.823 846.571 197.748C845.018 194.194 843.612 190.601 842.328 187.005C841.011 183.296 839.966 180.091 838.946 176.77C837.903 173.353 837.073 170.471 836.114 166.941C835.86 165.945 835.627 164.984 835.41 164.055C833.937 158.097 832.781 154.228 831.386 150.068C831.072 149.145 830.741 148.21 830.383 147.245C828.326 141.599 825.879 136.108 823.151 130.99C820.374 125.771 817.271 120.825 813.79 116.044C810.356 111.328 806.572 106.805 802.44 102.469C798.372 98.2015 794.056 94.1912 789.356 90.2919C784.724 86.4498 779.867 82.8426 774.813 79.4468C771.839 77.4509 768.879 75.5605 765.938 73.7789C763.831 72.5024 761.708 71.2654 759.585 70.0764C758.717 69.5908 757.848 69.1122 756.98 68.6424C753.919 66.9903 751.162 65.5819 748.319 64.2205C745.494 62.8687 742.689 61.6171 739.88 60.4572C737.086 59.3028 734.168 58.1967 731.492 57.2664C728.646 56.2795 726.241 55.5089 723.107 54.5966C721.065 54.0047 719.042 53.4435 717.006 52.8996C713.954 52.0843 710.876 51.3142 707.93 50.6293C704.943 49.9328 701.955 49.2809 698.914 48.662C697.937 48.4629 696.9 48.2563 695.912 48.0647C692.869 47.475 689.762 46.915 686.748 46.4214C683.801 45.9419 680.849 45.5026 677.88 45.1023C674.897 44.7004 671.935 44.3416 668.886 44.0136C663.654 43.4488 658.797 42.8551 654.56 42.3536C650.253 41.8408 646.181 41.3694 642.177 40.9475C641.427 40.8685 640.676 40.7909 639.923 40.7147C636.661 40.3832 633.5 40.0909 630.449 39.8426C626.662 39.5338 622.908 39.2778 619.109 39.0676C615.342 38.8591 611.505 38.6959 607.696 38.5869C603.924 38.4822 600.387 38.4306 596.496 38.4232C592.655 38.416 588.728 38.4838 584.392 38.5961C580.075 38.7075 575.592 38.861 571.131 39.0265C566.649 39.1922 562.065 39.3701 557.483 39.5509C552.919 39.7316 548.161 39.9233 543.754 40.1128C539.254 40.3047 534.752 40.5023 530.247 40.7115C525.753 40.9198 521.082 41.1492 516.686 41.3766C509.718 41.7358 502.757 42.1571 495.716 42.6544C488.703 43.1494 481.67 43.7156 474.749 44.338C467.807 44.9622 460.816 45.659 453.801 46.4247C446.833 47.1851 439.947 48.0003 432.986 48.8898C431.449 49.0862 429.91 49.2861 428.37 49.4893C422.947 50.2049 417.506 50.9632 412.175 51.744C412.138 51.749 412.101 51.754 412.064 51.759C405.172 52.7704 398.385 53.8287 391.518 54.972C389.001 55.3917 386.557 55.8079 384.122 56.2338C381.68 56.6609 379.282 57.0909 376.862 57.5365C374.439 57.9826 372.03 58.4387 369.658 58.9007C367.26 59.3683 364.923 59.8366 362.565 60.3265C360.404 60.7751 358.26 61.2372 355.918 61.7479C355.704 61.7945 355.49 61.8413 355.276 61.888C352.706 62.4496 349.807 63.0783 347.106 63.6429C339.949 65.1342 332.975 66.6701 325.883 68.3155C318.777 69.9648 311.742 71.6806 304.647 73.4833C301.878 74.187 299.097 74.9059 296.318 75.633C291.994 76.7641 287.657 77.9223 283.315 79.1017C276.171 81.0423 269.024 83.034 261.846 85.0727C254.699 87.1024 247.503 89.1831 240.348 91.2856C233.2 93.3858 226.009 95.5343 218.935 97.6835C211.011 100.091 203.159 102.543 195.321 105.069C187.52 107.581 179.655 110.195 171.888 112.858C164.073 115.539 156.446 118.233 148.655 121.079C140.897 123.912 133.211 126.807 125.594 129.766C121.068 131.523 116.393 133.376 111.835 135.216C109.489 136.364 107.251 137.474 105.105 138.545C89.4069 146.413 77.8108 152.532 63.1023 160.336C61.6722 161.122 60.529 161.796 59.1424 162.618C58.878 162.774 58.5971 162.94 58.3112 163.109C56.5017 164.182 54.4234 165.405 51.5087 167.022C45.671 170.266 36.8318 174.882 24.6943 180.411C21.657 181.794 19.1699 181.693 19.1155 180.166C19.0798 179.094 20.2632 177.602 22.0343 176.329C18.4706 178.166 14.9454 180.007 11.4633 181.859C10.0732 182.598 8.64833 183.081 7.4967 183.191C6.34567 183.301 5.56124 183.031 5.30856 182.432C5.05603 181.833 5.35772 180.949 6.15047 179.967C6.94294 178.986 8.16163 177.989 9.53999 177.193C13.1967 175.082 16.8809 172.996 20.5996 170.918C24.3146 168.843 28.0829 166.767 31.8218 164.738C35.5054 162.738 39.219 160.75 42.9758 158.767C46.7177 156.793 50.499 154.828 54.3171 152.872C58.1848 150.892 61.9012 149.015 65.7005 147.126C67.9791 145.993 70.296 144.853 72.5798 143.738C73.4312 143.323 74.2626 142.917 75.0963 142.512C75.7777 142.182 76.4638 141.851 77.1708 141.511C84.6293 137.914 92.1722 134.387 99.6353 130.997C107.14 127.587 114.832 124.2 122.4 120.963C129.972 117.724 137.618 114.548 145.338 111.438C153.082 108.319 160.681 105.347 168.461 102.394C176.194 99.4574 184.021 96.5767 191.781 93.7997C197.802 91.6456 203.8 89.5456 209.834 87.4791C212.176 86.5718 214.512 85.6821 216.793 84.8223C223.451 82.3134 230.123 79.7509 236.726 77.2742C224.798 81.144 215.396 84.5365 206.374 87.8779C205.169 88.325 203.972 88.7712 202.781 89.2168C190.629 93.7726 178.953 98.2371 163.133 104.056C118.188 120.734 93.141 132.392 77.2361 139.477C61.4785 146.621 54.7516 149.587 48.0646 151.94C38.6859 155.21 21.6948 163.565 13.3818 168.357C10.3762 170.067 7.41284 170.493 6.72769 169.292C6.04421 168.09 7.91574 165.705 10.9439 163.982C19.7927 158.879 38.2192 149.776 49.5043 145.878C54.5884 144.111 59.9709 141.802 75.5944 134.722C91.3308 127.725 116.273 116.102 161.49 99.3243C176.802 93.6938 188.088 89.3713 200.149 84.8392C201.333 84.3954 202.526 83.9484 203.732 83.5002C203.739 83.4977 203.747 83.4952 203.755 83.4927C214.911 79.3555 226.959 75.004 243.606 69.8385C281.789 57.7131 334.26 44.7455 346.681 41.8142C349.12 41.2017 351.494 40.5976 353.988 39.9712C363.602 37.6008 375.023 34.6338 401.502 29.8695C407.29 28.8416 413.958 27.744 421.458 26.6219C432.567 24.3083 443.203 22.2868 452.652 20.7933C460.826 19.5018 468.299 18.112 475.51 16.7636C477.586 16.3755 479.673 15.9843 481.754 15.6009C486.874 14.6669 491.991 13.7732 496.964 13.0351C500.929 12.4467 505.069 11.8105 509.43 11.1702C525.498 8.84982 544.741 6.33003 570.153 6.44203C597.033 6.59163 620.223 8.39784 639.79 10.8156C625.479 8.93627 613.983 7.78272 604.691 6.93486C602.945 6.77664 601.268 6.63051 599.648 6.49489C588.253 5.54769 579.496 5.06185 570.731 5.00544C527.723 5.05128 511.828 7.13063 493.931 9.58606C489.224 10.2788 483.906 11.1628 478.397 12.1448C467.386 14.1042 454.501 16.5664 440.97 18.923C428.354 21.1148 414.092 24.0217 399.316 27.3646C399.311 27.3656 399.305 27.3666 399.299 27.3675C396.396 28.0229 393.457 28.6971 390.492 29.3876C372.421 33.5928 353.575 38.3874 335.31 43.0949C333.355 43.5984 331.016 44.2189 328.332 44.9418C312.8 49.1236 285.765 56.7089 252.586 65.5381C245.312 67.4732 237.676 69.3836 229.013 71.649C226.374 72.3395 223.636 73.063 220.784 73.8341C208.507 77.1606 193.497 81.4577 173.964 88.1033C157.779 93.6133 138.27 100.895 118.333 109.07C108.529 113.084 98.4233 117.392 88.73 121.68C59.0923 134.812 32.7502 147.76 6.68983 162.278C6.68462 162.281 6.67941 162.284 6.6742 162.287C3.63031 163.985 0.702624 164.362 0.105591 163.109C-0.48906 161.857 1.48667 159.442 4.5531 157.733C30.7891 143.132 57.2089 130.165 86.8857 117.021C96.4788 112.78 106.55 108.485 116.36 104.467C136.482 96.2137 156.342 88.8025 172.75 83.2238C192.691 76.4473 208.047 72.0638 220.538 68.6909C223.557 67.8774 226.401 67.1275 229.105 66.4233C237.71 64.1831 244.899 62.3958 251.828 60.5552C284.082 51.9892 310.175 44.6364 325.826 40.4072C328.595 39.6591 331.029 39.0119 333.105 38.4757C351.054 33.8344 369.724 29.0616 387.814 24.8255C390.757 24.1363 393.685 23.4614 396.588 22.8019C396.594 22.8001 396.599 22.7983 396.605 22.7965C411.455 19.4168 425.988 16.4305 438.915 14.1719C451.946 11.889 463.688 9.62066 474.374 7.68017C480.094 6.64055 485.767 5.67324 491.332 4.8454C510.445 2.17878 527.273 0.0450497 570.688 -1.33514e-05ZM27.567 173.496C35.1891 169.969 40.9753 167.032 45.3889 164.657C41.5835 166.501 37.816 168.351 34.0766 170.216C31.9047 171.301 29.7253 172.399 27.567 173.496ZM423.201 31.4225C421.87 31.6992 420.528 31.9806 419.181 32.2658C422.928 31.6659 426.67 31.088 430.4 30.5305C434.979 29.8459 439.549 29.1934 444.105 28.5716C436.85 29.4776 429.79 30.4441 423.201 31.4225ZM570.181 11.4498C546.369 11.3486 528.849 13.5814 512.879 15.8267C508.37 16.4755 503.983 17.1366 499.627 17.7748C497.82 18.0395 496.014 18.3231 494.192 18.622C504.914 17.8545 514.483 17.3566 522.68 17.0222C546.629 16.0901 560.436 16.5454 572.308 16.9967C575.736 17.1371 579.034 17.2927 582.5 17.4642C585.351 17.3607 588.3 17.2775 591.265 17.2339C595.418 17.1703 599.878 17.1655 604.091 17.2206C608.25 17.2704 612.766 17.3996 617.05 17.5836C621.39 17.7698 625.654 18.0161 629.862 18.3159C633.829 18.5987 637.692 18.9234 641.653 19.3021C641.876 19.3234 642.099 19.3449 642.322 19.3665C646.443 19.7636 650.411 20.1941 654.032 20.5883C657.719 20.9888 660.759 21.3182 663.455 21.5501C666.8 21.8364 670.487 22.224 673.96 22.6337C677.464 23.0476 680.92 23.5077 684.333 24.0125C687.787 24.5261 690.994 25.0382 694.537 25.6775C695.662 25.8798 696.836 26.0967 697.944 26.3072C698.454 26.4042 698.964 26.5015 699.472 26.6002C692.678 24.9561 686.046 23.5134 678.885 22.119C668.428 20.0911 657.6 18.2345 645.27 16.5713C624.402 13.7749 600.132 11.6337 570.181 11.4498ZM794.691 66.7231C792.233 64.985 788.573 62.4945 783.608 59.4866C782.457 58.7903 781.28 58.0949 780.011 57.361C780.04 57.3795 780.07 57.3974 780.099 57.4159C783.096 59.335 786.035 61.3009 789.049 63.4258C794.478 67.261 799.269 70.9919 804.271 75.3038C809.225 79.589 813.788 83.9875 818.188 88.7611C822.616 93.5687 826.71 98.6037 830.435 103.85C834.216 109.174 837.586 114.657 840.62 120.431C841.575 122.249 842.495 124.094 843.377 125.964C841.553 121.741 839.399 117.413 836.86 112.988C834.834 109.457 832.562 105.861 830.002 102.2C829.028 100.808 827.835 99.1299 826.384 97.2085C820.648 89.6014 810.66 78.0087 794.691 66.7231ZM858.635 174.237C859.014 175.526 859.392 176.759 859.791 178.022C860.979 181.793 862.228 185.313 863.547 188.63C864.48 190.972 865.408 193.14 866.496 195.477C866.944 196.437 867.402 197.383 867.864 198.308C868.639 199.857 869.436 201.358 870.251 202.815C864.677 192.342 860.751 180.949 858.072 169.31C858.036 169.152 857.998 168.994 857.961 168.834C858.165 170.702 858.391 172.501 858.635 174.237Z" fill="#FFDA83"/>
</svg>
