<svg width="63" height="63" viewBox="0 0 63 63" fill="none" xmlns="http://www.w3.org/2000/svg">
<rect width="63" height="63" rx="31.5" fill="#0077FF"/>
<path d="M33.0474 42.5251C21.2089 42.5251 14.4563 34.2481 14.175 20.4751H20.1051C20.2999 30.5841 24.6717 34.8661 28.1345 35.749V20.4751H33.7184V29.1936C37.1379 28.8183 40.7306 24.8454 41.9426 20.4751H47.5264C47.0697 22.7416 46.1593 24.8877 44.8522 26.779C43.5451 28.6704 41.8694 30.2663 39.9298 31.467C42.0948 32.5641 44.007 34.117 45.5403 36.0231C47.0736 37.9292 48.1931 40.1453 48.825 42.5251H42.6785C42.1113 40.4581 40.9585 38.6078 39.3646 37.206C37.7707 35.8043 35.8066 34.9136 33.7184 34.6454V42.5251H33.0474Z" fill="white"/>
</svg>
